<?xml version="1.0" encoding="UTF-8" standalone="no"?>
<svg
   width="32"
   height="32"
   version="1.1"
   id="svg1"
   sodipodi:docname="user-desktop-symbolic.svg"
   inkscape:version="1.3.2 (091e20ef0f, 2023-11-25)"
   xmlns:inkscape="http://www.inkscape.org/namespaces/inkscape"
   xmlns:sodipodi="http://sodipodi.sourceforge.net/DTD/sodipodi-0.dtd"
   xmlns="http://www.w3.org/2000/svg"
   xmlns:svg="http://www.w3.org/2000/svg">
  <defs
     id="defs1" />
  <sodipodi:namedview
     id="namedview1"
     pagecolor="#ffffff"
     bordercolor="#000000"
     borderopacity="1"
     inkscape:showpageshadow="2"
     inkscape:pageopacity="0"
     inkscape:pagecheckerboard="0"
     inkscape:deskcolor="#d1d1d1"
     inkscape:zoom="24.09375"
     inkscape:cx="15.979248"
     inkscape:cy="16"
     inkscape:window-width="1920"
     inkscape:window-height="1003"
     inkscape:window-x="0"
     inkscape:window-y="0"
     inkscape:window-maximized="1"
     inkscape:current-layer="svg1" />
  <style
     type="text/css"
     id="current-color-scheme">
        .ColorScheme-Text {
            color:#eff0f1;
        }
        .ColorScheme-Background {
            color:#eff0f1;
        }
    </style>
  <g
     id="32-32-user-desktop"
     transform="translate(-260) translate(260,0)">
    <path
       id="rect844"
       d="m0 0h32v32h-32z"
       fill="none" />
    <path
       id="path819"
       class="ColorScheme-Text"
       d="m 4,8 c 0,4 0,12 0,16 0,4 4,4 4,4 h 16 c 0,0 4,0 4,-4 C 28,20 28,12 28,8 28,4 24,4 24,4 H 8 C 8,4 4,4 4,8 Z M 5,8 C 5,5 8,5 8,5 h 16 c 0,0 3,0 3,3 0,3 0,13 0,16 0,3 -3,3 -3,3 L 8,27 C 8,27 5,27 5,24 5,21 5,11 5,8 Z m 2,16 v 1 h 18 v -1 z"
       fill="currentColor" />
  </g>
</svg>
