<?xml version="1.0" encoding="UTF-8" standalone="no"?>
<svg
   width="64"
   version="1.1"
   height="64"
   id="svg17"
   sodipodi:docname="folder-Happy-Holidays.svg"
   inkscape:version="1.4 (e7c3feb100, 2024-10-09)"
   xmlns:inkscape="http://www.inkscape.org/namespaces/inkscape"
   xmlns:sodipodi="http://sodipodi.sourceforge.net/DTD/sodipodi-0.dtd"
   xmlns:xlink="http://www.w3.org/1999/xlink"
   xmlns="http://www.w3.org/2000/svg"
   xmlns:svg="http://www.w3.org/2000/svg"
   xmlns:rdf="http://www.w3.org/1999/02/22-rdf-syntax-ns#"
   xmlns:cc="http://creativecommons.org/ns#"
   xmlns:dc="http://purl.org/dc/elements/1.1/">
  <sodipodi:namedview
     pagecolor="#ffffff"
     bordercolor="#666666"
     borderopacity="1"
     objecttolerance="10"
     gridtolerance="10"
     guidetolerance="10"
     inkscape:pageopacity="0"
     inkscape:pageshadow="2"
     inkscape:window-width="1920"
     inkscape:window-height="996"
     id="namedview19"
     showgrid="false"
     inkscape:zoom="11.313709"
     inkscape:cx="27.267804"
     inkscape:cy="30.670755"
     inkscape:window-x="0"
     inkscape:window-y="0"
     inkscape:window-maximized="1"
     inkscape:current-layer="layer1"
     inkscape:document-rotation="0"
     inkscape:showpageshadow="2"
     inkscape:pagecheckerboard="0"
     inkscape:deskcolor="#d1d1d1">
    <inkscape:grid
       type="xygrid"
       id="grid908"
       originx="0"
       originy="0"
       spacingy="1"
       spacingx="1"
       units="px"
       visible="false" />
  </sodipodi:namedview>
  <defs
     id="defs5455">
    <linearGradient
       inkscape:collect="always"
       id="linearGradient1417">
      <stop
         style="stop-color:#3cb2c3;stop-opacity:1;"
         offset="0"
         id="stop1413" />
      <stop
         style="stop-color:#9d7ed5;stop-opacity:1"
         offset="1"
         id="stop1415" />
    </linearGradient>
    <clipPath
       clipPathUnits="userSpaceOnUse"
       id="clipPath79425-9-5-3">
      <rect
         style="opacity:0.5;fill:#000000;fill-opacity:1;stroke:none;stroke-width:0.855869;stroke-dasharray:none;stroke-opacity:1;paint-order:stroke fill markers"
         id="rect79427-1-9-6"
         width="26.417742"
         height="29.037542"
         x="-16.227774"
         y="-6.4845476" />
    </clipPath>
    <clipPath
       clipPathUnits="userSpaceOnUse"
       id="clipPath79425-9-5-5">
      <rect
         style="opacity:0.5;fill:#000000;fill-opacity:1;stroke:none;stroke-width:0.855869;stroke-dasharray:none;stroke-opacity:1;paint-order:stroke fill markers"
         id="rect79427-1-9-62"
         width="26.417742"
         height="29.037542"
         x="-16.227774"
         y="-6.4845476" />
    </clipPath>
    <linearGradient
       inkscape:collect="always"
       id="linearGradient2303">
      <stop
         style="stop-color:#a78bda;stop-opacity:1;"
         offset="0"
         id="stop2299" />
      <stop
         style="stop-color:#00bdff;stop-opacity:1;"
         offset="1"
         id="stop2301" />
    </linearGradient>
    <linearGradient
       inkscape:collect="always"
       xlink:href="#linearGradient1417"
       id="linearGradient1419-3"
       x1="0.52915627"
       y1="5.0269842"
       x2="16.403845"
       y2="5.0269842"
       gradientUnits="userSpaceOnUse"
       gradientTransform="matrix(3.779602,0,0,3.8662743,384.57143,480.49982)" />
    <clipPath
       clipPathUnits="userSpaceOnUse"
       id="clipPath79425-9-5-5-6">
      <rect
         style="opacity:0.5;fill:#000000;fill-opacity:1;stroke:none;stroke-width:0.855869;stroke-dasharray:none;stroke-opacity:1;paint-order:stroke fill markers"
         id="rect79427-1-9-62-7"
         width="26.417742"
         height="29.037542"
         x="-16.227774"
         y="-6.4845476" />
    </clipPath>
    <linearGradient
       inkscape:collect="always"
       xlink:href="#linearGradient2303"
       id="linearGradient1662-5"
       gradientUnits="userSpaceOnUse"
       gradientTransform="matrix(3.7757185,0,0,3.9032699,384.57656,479.89307)"
       x1="9.3259869"
       y1="14.831515"
       x2="9.3259869"
       y2="4.269978" />
    <clipPath
       clipPathUnits="userSpaceOnUse"
       id="clipPath79425-9-5-5-6-6">
      <rect
         style="opacity:0.5;fill:#000000;fill-opacity:1;stroke:none;stroke-width:0.855869;stroke-dasharray:none;stroke-opacity:1;paint-order:stroke fill markers"
         id="rect79427-1-9-62-7-1"
         width="26.417742"
         height="29.037542"
         x="-16.227774"
         y="-6.4845476" />
    </clipPath>
  </defs>
  <metadata
     id="metadata5458">
    <rdf:RDF>
      <cc:Work
         rdf:about="">
        <dc:format>image/svg+xml</dc:format>
        <dc:type
           rdf:resource="http://purl.org/dc/dcmitype/StillImage" />
      </cc:Work>
    </rdf:RDF>
  </metadata>
  <g
     inkscape:label="Capa 1"
     inkscape:groupmode="layer"
     id="layer1"
     transform="translate(-384.57143,-483.798)">
    <path
       id="path32082-9-2"
       style="fill:url(#linearGradient1419-3);fill-opacity:1;stroke:none;stroke-width:5.11693;stroke-linecap:round;stroke-linejoin:round;stroke-opacity:0.03"
       d="m 393.57143,493.798 c -4,0 -7,3.14014 -7,7.32703 v 5.2336 c 0,0 2,-5.2336 5,-5.2336 h 8 12 6 24 c 3,0 5,2.09345 5,5.2336 v 0 0 -5.2336 c 0,-4.18689 -3,-7.32703 -7,-7.32703 h -24.07114 -5.92886 -9 z"
       sodipodi:nodetypes="sccsccccccccccccs" />
    <rect
       x="410.57162"
       y="494.84454"
       width="12"
       height="2.0934412"
       ry="1.0248641"
       stroke-width="3.41941"
       style="fill:#222638;fill-opacity:1;paint-order:stroke markers fill"
       id="rect12-5-9-3-9-9"
       rx="1.0248643" />
    <path
       d="m 418.30476,497.98488 h -3.46666 -4.33334 -16.93333 c -2,0 -3,1.04672 -3,3.14015 v 0 0 h 52 v 0 0 c 0,-2.09343 -1,-3.14015 -3,-3.14015 z"
       style="fill:#222638;fill-opacity:1;stroke-width:2.33915;paint-order:markers stroke fill"
       id="path8-7-2-9-6-1-7-5-1"
       sodipodi:nodetypes="cccccccccccc"
       opacity="0.6" />
    <path
       style="display:inline;fill:#4f4f4f;fill-opacity:1;stroke:none;stroke-width:2.74813;stroke-linecap:round;stroke-linejoin:round;stroke-opacity:0.03"
       d="m -14.026297,2.5011118 6.1666725,4.13e-5 H -3.014907 0.06809547 L 7.9884881,2.5011118 C 9.3097749,2.5157128 10.189967,3.444358 10.189967,4.874457 l -2.06e-4,11.759984 c 0.0082,1.415373 -0.872618,2.358956 -2.6343739,2.358956 H -14.02563 c -1.321306,0 -2.202145,-0.943583 -2.202145,-2.358956 V 4.874457 c 0,-1.4240071 0.880591,-2.3733452 2.201478,-2.3733452 z"
       id="path1611-1-8-0-7-2"
       clip-path="url(#clipPath79425-9-5-5-6)"
       transform="matrix(2.271201,0,0,2.2025816,423.42797,495.2891)"
       sodipodi:nodetypes="cccccccssccc" />
    <path
       d="m 418.57143,500.798 h -4 -5 -18.00001 c -3,0 -4.99999,2.05557 -4.99999,5.13889 v 26.72227 c 0,3.08331 1.99999,5.13884 4.99999,5.13884 h 50.00001 c 3,0 5,-2.05553 5,-5.13884 v -26.72227 c 0,-3.08332 -2,-5.13889 -5,-5.13889 z"
       style="fill:url(#linearGradient1662-5);fill-opacity:1;stroke-width:3.83804;paint-order:markers stroke fill"
       id="path8-7-2-9-6-1-9-2"
       sodipodi:nodetypes="ccccsssssscc"
       opacity="0.6" />
    <path
       style="fill:#ffffff;fill-opacity:1;stroke-width:0.56885"
       d="m 394.86275,519.81929 h -0.1589 c 0,-0.025 0,-0.0488 -0.0245,-0.0851 -0.008,-0.0485 -0.0249,-0.0847 -0.0494,-0.13268 -0.008,-0.0598 -0.025,-0.0963 -0.0495,-0.14576 -0.008,-0.0485 -0.0249,-0.0847 -0.0367,-0.0847 -0.0249,-0.072 -0.12235,-0.18158 -0.30575,-0.36348 -0.17138,-0.19417 -0.36686,-0.37535 -0.59882,-0.56956 -0.22002,-0.20548 -0.44063,-0.37536 -0.66013,-0.54457 -0.22001,-0.1698 -0.37886,-0.27852 -0.48917,-0.32727 -0.20741,-0.0598 -0.39144,-0.10983 -0.56232,-0.1327 -0.15883,-0.0361 -0.28114,-0.0487 -0.35483,-0.0487 -0.0977,0 -0.24458,0.0968 -0.4521,0.3397 -0.19547,0.2298 -0.40346,0.53283 -0.64809,0.89619 -0.23192,0.36353 -0.47655,0.75077 -0.72112,1.21164 -0.24458,0.44787 -0.45207,0.88447 -0.66003,1.31979 -0.19607,0.42401 -0.35487,0.82373 -0.48918,1.18727 -0.12247,0.36352 -0.19544,0.64207 -0.19544,0.84806 0,0.19369 0.0612,0.46035 0.18342,0.83575 0.13393,0.36344 0.29374,0.76322 0.48914,1.19913 0.20746,0.42412 0.42806,0.84767 0.67209,1.30836 0.24457,0.44795 0.47716,0.86017 0.70918,1.22304 0.24463,0.36344 0.45258,0.642 0.6481,0.88438 0.20739,0.23037 0.36686,0.3515 0.46459,0.3515 0.0367,0 0.0724,-0.007 0.13384,-0.007 0.0728,-0.007 0.14739,-0.025 0.2326,-0.0362 0.12232,-0.0362 0.33035,-0.12116 0.59895,-0.2786 0.28126,-0.16978 0.56226,-0.33903 0.84349,-0.52083 0.29315,-0.1936 0.54974,-0.3753 0.77029,-0.54526 0.23202,-0.18108 0.35435,-0.30223 0.37891,-0.36339 0,-0.025 0.008,-0.0486 0.0249,-0.0847 0.0249,-0.0495 0.0249,-0.0847 0.05,-0.13259 0.0249,-0.0495 0.0483,-0.0847 0.0616,-0.13265 0.0249,-0.0493 0.0249,-0.0851 0.0249,-0.0851 h 0.15894 v 1.74388 c -0.0485,0.025 -0.13384,0.0491 -0.30579,0.0963 -0.15882,0.0494 -0.3423,0.0972 -0.57431,0.14593 -0.21993,0.0489 -0.46461,0.0963 -0.72125,0.15744 -0.24449,0.0496 -0.47707,0.0963 -0.70909,0.14592 -0.22003,0.0361 -0.41548,0.061 -0.59895,0.0963 -0.17137,0.025 -0.29373,0.0487 -0.36684,0.0487 -0.14672,0 -0.35437,-0.12126 -0.62349,-0.36343 -0.26923,-0.24298 -0.5504,-0.55713 -0.86806,-0.93248 -0.31773,-0.38782 -0.63553,-0.79945 -0.96581,-1.25987 -0.31768,-0.47265 -0.61142,-0.92056 -0.88003,-1.36898 -0.26915,-0.46022 -0.48911,-0.87179 -0.66004,-1.24719 -0.17151,-0.38787 -0.25662,-0.67828 -0.25662,-0.872 0,-0.21846 0.0853,-0.49703 0.25662,-0.87239 0.17093,-0.38726 0.37887,-0.78759 0.64799,-1.23542 0.26921,-0.46088 0.5744,-0.90869 0.89264,-1.36899 0.33039,-0.47214 0.63551,-0.89621 0.95376,-1.27159 0.31847,-0.38728 0.61149,-0.69022 0.88008,-0.93194 0.26917,-0.24291 0.47733,-0.3641 0.62348,-0.3641 0.0863,0 0.20798,0.007 0.39146,0.0611 0.19546,0.0362 0.39149,0.0721 0.62352,0.14592 0.24458,0.0598 0.47712,0.12131 0.73374,0.2055 0.26863,0.0727 0.48858,0.15739 0.70917,0.22989 0.21996,0.0727 0.40349,0.13262 0.54976,0.20605 0.15898,0.0608 0.25659,0.10869 0.28115,0.14579 l -0.0862,0.0851 0.0862,-0.0851 v 1.68216 z"
       id="path1320-6" />
    <path
       style="fill:#ffffff;fill-opacity:1;stroke-width:0.56885"
       d="m 402.97933,528.98796 v 0.18108 h -0.91655 -0.4281 -0.4274 -0.91667 v -0.18108 h 0.13388 c 0.0498,0 0.0976,-0.025 0.18335,-0.0967 0.0977,-0.0723 0.18353,-0.15674 0.26921,-0.24238 0.0973,-0.0963 0.17087,-0.16913 0.23201,-0.25421 0.0728,-0.0963 0.0975,-0.1574 0.0975,-0.1935 v -7.00084 c 0,-0.0847 -0.0367,-0.20539 -0.15889,-0.37526 -0.11017,-0.1819 -0.24459,-0.35105 -0.40294,-0.52089 -0.14723,-0.18188 -0.2936,-0.32738 -0.45187,-0.46041 -0.14724,-0.14533 -0.26923,-0.20539 -0.36702,-0.20539 -0.0614,0 -0.17082,0.025 -0.35428,0.0847 -0.1714,0.0497 -0.35485,0.12132 -0.56229,0.20622 -0.19543,0.0722 -0.37887,0.1574 -0.57427,0.25421 -0.18348,0.0847 -0.31784,0.15736 -0.41606,0.21785 v 7.8003 c 0,0.0357 0.0367,0.0847 0.0977,0.18105 0.0728,0.0851 0.13393,0.16987 0.22004,0.26671 0.0978,0.0851 0.17085,0.15732 0.25668,0.22988 0.0973,0.0727 0.15879,0.10978 0.19543,0.10978 h 0.14664 v 0.18108 h -0.91662 -0.42806 -0.42739 -0.9167 v -0.18108 h 0.13391 c 0.0488,0 0.0978,-0.025 0.18342,-0.0972 0.0974,-0.0723 0.18348,-0.15681 0.26918,-0.24232 0.0978,-0.0963 0.17085,-0.16931 0.23196,-0.25421 0.0728,-0.0963 0.0977,-0.15743 0.0977,-0.19357 v -10.17472 c 0,-0.0611 -0.008,-0.13236 -0.0857,-0.22984 -0.0612,-0.10898 -0.12232,-0.20559 -0.22005,-0.30244 -0.0856,-0.10968 -0.15877,-0.20607 -0.25661,-0.27852 -0.0863,-0.0851 -0.15885,-0.13263 -0.21998,-0.13263 l -0.13389,-0.0362 v -0.10918 l 1.60125,-0.46022 h 0.17089 v 0.21845 1.11422 2.45892 c 0.12233,-0.0963 0.31829,-0.20555 0.5624,-0.3392 0.25649,-0.14578 0.51309,-0.26665 0.78226,-0.38777 0.26921,-0.13271 0.51317,-0.24226 0.74576,-0.32731 0.24456,-0.0963 0.40348,-0.13257 0.47718,-0.13257 0.0977,0 0.23202,0.0727 0.40347,0.25419 0.1834,0.16976 0.35434,0.3754 0.52585,0.60571 0.18336,0.21806 0.33018,0.44796 0.45191,0.67783 0.13398,0.21845 0.19546,0.38776 0.19546,0.49702 v 7.08567 c 0,0.0358 0.0367,0.0847 0.0976,0.18127 0.0727,0.0851 0.14727,0.16981 0.23262,0.26663 0.0976,0.0851 0.17079,0.15736 0.25661,0.22976 0.0978,0.0727 0.15889,0.10964 0.19538,0.10964 z"
       id="path1321-3" />
    <path
       style="fill:#ffffff;fill-opacity:1;stroke-width:0.56885"
       d="m 404.01781,519.71009 v -0.10864 l 1.4789,-0.46041 h 0.17088 l 0.11097,1.18738 h 0.008 v 0.10902 c 0.0975,-0.12121 0.22011,-0.25424 0.4034,-0.39974 0.19547,-0.15743 0.36693,-0.29104 0.56237,-0.43603 0.1954,-0.14573 0.36693,-0.26659 0.53787,-0.36345 0.17137,-0.10941 0.29356,-0.15733 0.34214,-0.15733 0.0732,0 0.17094,0.025 0.29392,0.0727 0.12216,0.0487 0.23192,0.0847 0.35424,0.15747 0.12222,0.0606 0.2326,0.12117 0.31764,0.19365 0.0978,0.0614 0.13397,0.10953 0.13397,0.13257 0,0.025 0,0.0489 -0.0484,0.0963 -0.0367,0.0493 -0.0727,0.0851 -0.12259,0.13265 -0.0486,0.0498 -0.0859,0.0727 -0.13387,0.12132 -0.0492,0.0362 -0.0856,0.0611 -0.11007,0.0611 -0.025,0 -0.0978,-0.007 -0.24448,-0.0489 -0.13391,-0.0476 -0.26925,-0.0847 -0.42812,-0.1213 -0.14738,-0.048 -0.29381,-0.0715 -0.42804,-0.10938 -0.12239,-0.0492 -0.20745,-0.0611 -0.25669,-0.0611 -0.0367,0 -0.0977,0.007 -0.2074,0.0851 -0.0978,0.0598 -0.20798,0.12134 -0.33026,0.21793 -0.12241,0.0847 -0.23252,0.16991 -0.35491,0.27857 -0.12237,0.0963 -0.20801,0.19354 -0.28115,0.26662 v 7.64282 c 0,0.0358 0.0367,0.0847 0.0977,0.18111 0.0729,0.0851 0.13387,0.16985 0.22004,0.26669 0.0976,0.0851 0.17084,0.15733 0.25671,0.22991 0.0974,0.0727 0.15868,0.10955 0.1954,0.10955 h 0.1466 v 0.18114 h -0.91655 -0.42805 -0.42744 -0.91672 v -0.18113 h 0.13394 c 0.0487,0 0.0974,-0.025 0.18341,-0.0969 0.0974,-0.0722 0.1835,-0.15688 0.2691,-0.24234 0.0974,-0.0963 0.17092,-0.16926 0.23203,-0.25419 0.0728,-0.0963 0.0974,-0.15738 0.0974,-0.19364 v -7.50969 c 0,-0.0611 -0.008,-0.13269 -0.0861,-0.22985 -0.0614,-0.10998 -0.12239,-0.20621 -0.22001,-0.30302 -0.0852,-0.10779 -0.15884,-0.20539 -0.25665,-0.27854 -0.0857,-0.0847 -0.15881,-0.13266 -0.21999,-0.13266 z"
       id="path1322-9" />
    <path
       style="fill:#ffffff;fill-opacity:1;stroke-width:0.56885"
       d="m 409.39644,519.71009 v -0.10864 l 1.60125,-0.46041 h 0.17084 v 0.21807 1.11478 7.72717 c 0,0.0358 0.0367,0.0847 0.0976,0.18106 0.0728,0.0851 0.14736,0.16997 0.232,0.26665 0.0977,0.0851 0.17154,0.15747 0.25665,0.22991 0.0976,0.0727 0.15881,0.10961 0.19548,0.10961 h 0.13378 v 0.18105 h -0.91716 -0.42799 -0.4258 -0.91656 v -0.18105 h 0.1339 c 0.0484,0 0.0976,-0.025 0.18343,-0.0967 0.0974,-0.0723 0.18336,-0.15678 0.26916,-0.24242 0.0974,-0.0963 0.17094,-0.16913 0.23192,-0.25419 0.0729,-0.0963 0.0976,-0.15734 0.0976,-0.19348 v -7.50974 c 0,-0.0611 -0.007,-0.13271 -0.0861,-0.22989 -0.0612,-0.11009 -0.13386,-0.2062 -0.21996,-0.30291 -0.0726,-0.10913 -0.15886,-0.20553 -0.25655,-0.27859 -0.0863,-0.0847 -0.15885,-0.13276 -0.22,-0.13276 z m 1.2961,-1.41716 c -0.025,0 -0.0611,-0.0245 -0.13388,-0.0724 -0.0616,-0.0486 -0.1223,-0.10901 -0.19548,-0.16984 -0.0616,-0.0723 -0.12229,-0.12119 -0.17154,-0.1811 -0.049,-0.0727 -0.0728,-0.12114 -0.0728,-0.14575 0,-0.0362 0.025,-0.0727 0.0728,-0.13274 0.0495,-0.0727 0.11114,-0.13259 0.17154,-0.19416 0.0729,-0.0721 0.12233,-0.1213 0.18345,-0.1692 0.0728,-0.0494 0.12231,-0.0727 0.14727,-0.0727 0.0367,0 0.0728,0.025 0.13386,0.0727 0.0727,0.0481 0.13392,0.0964 0.19538,0.1692 0.0729,0.0604 0.12239,0.10954 0.17094,0.18169 0.049,0.0598 0.0728,0.10925 0.0728,0.14594 0,0.025 -0.025,0.0598 -0.0728,0.13266 -0.0494,0.0598 -0.0978,0.12118 -0.17094,0.19359 -0.0611,0.0611 -0.11097,0.12138 -0.18336,0.16984 -0.0619,0.0494 -0.11107,0.0724 -0.14727,0.0724 z"
       id="path1323-4" />
    <path
       style="fill:#ffffff;fill-opacity:1;stroke-width:0.56885"
       d="m 413.21034,527.51026 h 0.13398 c 0.007,0.007 0.025,0.0487 0.0613,0.14593 0.0497,0.0847 0.0732,0.13266 0.0732,0.15743 0.025,0.048 0.0977,0.13259 0.24466,0.25419 0.14718,0.1212 0.31768,0.24233 0.48911,0.37542 0.18343,0.12129 0.34231,0.22975 0.51316,0.35089 0.17087,0.10873 0.29315,0.18185 0.36697,0.20618 0.14727,0.0245 0.2326,0.0362 0.28107,0.0362 0.0728,0 0.17089,-0.0847 0.31774,-0.27859 0.14734,-0.1935 0.29379,-0.41143 0.4401,-0.66566 0.15869,-0.26664 0.29372,-0.52095 0.40344,-0.76378 0.12234,-0.25426 0.17149,-0.43606 0.17149,-0.55663 0,-0.0727 -0.0614,-0.20605 -0.18359,-0.43653 -0.12232,-0.24233 -0.25647,-0.4721 -0.42799,-0.7387 -0.15881,-0.26671 -0.31771,-0.50849 -0.48913,-0.72647 -0.15886,-0.23051 -0.28117,-0.36406 -0.35438,-0.41218 -0.0616,-0.0486 -0.1471,-0.14597 -0.2691,-0.29103 -0.11012,-0.14586 -0.23204,-0.31537 -0.37888,-0.50848 -0.13398,-0.19417 -0.28118,-0.41154 -0.42801,-0.62958 -0.14671,-0.22983 -0.26914,-0.43598 -0.39155,-0.62951 -0.12221,-0.20621 -0.22006,-0.37538 -0.29305,-0.52086 -0.0728,-0.15748 -0.11049,-0.26671 -0.11049,-0.31542 0,-0.0964 0.0486,-0.21792 0.12248,-0.36343 0.0854,-0.15742 0.18346,-0.32737 0.30567,-0.5084 0.13383,-0.19427 0.26922,-0.36355 0.4281,-0.55716 0.17137,-0.19369 0.31823,-0.37536 0.46457,-0.52089 0.15889,-0.15739 0.29376,-0.27851 0.41605,-0.37546 0.13382,-0.10923 0.23203,-0.15727 0.30566,-0.15727 0.0499,0 0.15886,0.007 0.33043,0.0851 0.18328,0.0598 0.36674,0.12131 0.56228,0.21799 0.19541,0.0847 0.36692,0.16981 0.53773,0.25426 0.17147,0.0722 0.28118,0.13258 0.30561,0.18171 l -0.11063,0.0964 0.11063,-0.0964 v 1.10181 h -0.14716 c 0,-0.025 -0.007,-0.0611 -0.0488,-0.15746 -0.025,-0.0964 -0.0499,-0.15685 -0.0614,-0.16928 0,-0.0485 -0.0612,-0.12129 -0.15877,-0.24292 -0.0978,-0.1212 -0.208,-0.24221 -0.33032,-0.37527 -0.1224,-0.14543 -0.23198,-0.2542 -0.35436,-0.36353 -0.11121,-0.12126 -0.18342,-0.18121 -0.23263,-0.19366 v -0.007 c -0.0978,-0.0498 -0.1834,-0.0727 -0.25651,-0.0964 -0.0728,-0.0362 -0.12246,-0.0488 -0.14722,-0.0488 -0.0729,0 -0.18337,0.0847 -0.34219,0.25417 -0.14669,0.1699 -0.29326,0.36347 -0.45265,0.5934 -0.14672,0.21851 -0.28123,0.43586 -0.40342,0.66637 -0.12233,0.21848 -0.18343,0.38783 -0.18343,0.49659 0,0.0611 0.086,0.20601 0.2325,0.47269 0.1589,0.25424 0.34234,0.5209 0.53781,0.81126 0.20742,0.29104 0.40345,0.54524 0.59888,0.81187 0.20801,0.25428 0.35487,0.41166 0.45265,0.48422 0.0859,0.0486 0.20798,0.20599 0.37933,0.4602 0.17095,0.24239 0.3424,0.52089 0.51326,0.81189 0.18344,0.29046 0.34226,0.55661 0.4646,0.82329 0.13393,0.26658 0.19548,0.43652 0.19548,0.52081 0,0.0847 -0.0367,0.20613 -0.12238,0.38778 -0.0727,0.16988 -0.17144,0.35112 -0.31831,0.56958 -0.13396,0.20564 -0.26854,0.41221 -0.44,0.62964 -0.15885,0.21799 -0.31779,0.39975 -0.47659,0.58094 -0.14732,0.16984 -0.29382,0.30292 -0.42797,0.42408 -0.12237,0.10888 -0.23217,0.16986 -0.30582,0.16986 -0.0614,0 -0.19545,-0.007 -0.41543,-0.0487 -0.20804,-0.0487 -0.42805,-0.0723 -0.67263,-0.12119 -0.24458,-0.0487 -0.45257,-0.0847 -0.66007,-0.13267 -0.19544,-0.0491 -0.31837,-0.0847 -0.36682,-0.10887 v -1.30787 z"
       id="path1324-8" />
    <path
       style="fill:#ffffff;fill-opacity:1;stroke-width:0.56885"
       d="m 422.17045,519.14099 v 0.32678 h -2.01729 v 7.58267 c 0,0.12138 0.0367,0.27812 0.0978,0.48413 0.0728,0.1936 0.13389,0.39974 0.21998,0.5933 0.0976,0.19431 0.18345,0.36358 0.26868,0.50836 0.0974,0.14579 0.1588,0.21871 0.20793,0.21871 0.0729,0 0.15884,-0.007 0.29371,-0.0362 0.14672,-0.025 0.26916,-0.0611 0.41552,-0.0847 0.14714,-0.0362 0.28119,-0.0727 0.39143,-0.0968 0.1223,-0.0362 0.18345,-0.0598 0.19549,-0.0598 l 0.0612,0.0598 c -0.0246,0.025 -0.12233,0.0727 -0.29317,0.14595 -0.15885,0.0608 -0.34235,0.1212 -0.53782,0.1941 -0.19538,0.061 -0.36686,0.10878 -0.56221,0.16942 -0.18348,0.0489 -0.31778,0.0851 -0.39146,0.0851 -0.0729,0 -0.17148,-0.0964 -0.31775,-0.27856 -0.13395,-0.19412 -0.25661,-0.41219 -0.40349,-0.65396 -0.1339,-0.25429 -0.25661,-0.50847 -0.35489,-0.77512 -0.0974,-0.26667 -0.14669,-0.48397 -0.14669,-0.62951 v -7.42486 h -0.96584 v -0.0964 c 0.0499,-0.008 0.13394,-0.0847 0.28123,-0.20558 0.14724,-0.13266 0.3057,-0.26655 0.45262,-0.43647 0.15899,-0.16987 0.29377,-0.33908 0.41607,-0.49652 0.13387,-0.16983 0.20797,-0.2785 0.21995,-0.3392 l -0.34225,1.34412 0.66003,-2.56761 h 0.13389 v 2.47085 h 2.01672 z"
       id="path1325-1" />
    <path
       style="fill:#ffffff;fill-opacity:1;stroke-width:0.56885"
       d="m 434.3217,528.98796 v 0.18108 h -0.91667 -0.42809 -0.42801 -0.91656 v -0.18108 h 0.14662 c 0.0499,0 0.0978,-0.025 0.18344,-0.0967 0.0977,-0.0723 0.17085,-0.15674 0.25662,-0.24238 0.0977,-0.0963 0.17084,-0.16913 0.23211,-0.25421 0.0724,-0.0963 0.0978,-0.1574 0.0978,-0.1935 v -7.00084 c 0,-0.0847 -0.0614,-0.20539 -0.19546,-0.37526 -0.12233,-0.1819 -0.26909,-0.35105 -0.45193,-0.52089 -0.17156,-0.18188 -0.34238,-0.32738 -0.51376,-0.46041 -0.17085,-0.14533 -0.29321,-0.20539 -0.36691,-0.20539 -0.0729,0 -0.22,0.025 -0.43999,0.0963 -0.22002,0.0727 -0.4401,0.14586 -0.68475,0.24234 -0.23198,0.0969 -0.43993,0.18177 -0.64802,0.27846 -0.19538,0.0964 -0.33023,0.16991 -0.40347,0.22988 0.0978,0.13266 0.15891,0.24302 0.20809,0.36363 0.0613,0.10901 0.086,0.19347 0.086,0.26664 v 7.08565 c 0,0.0358 0.0367,0.0847 0.0977,0.18102 0.0727,0.0851 0.14733,0.16999 0.23264,0.26664 0.0977,0.0851 0.17084,0.15752 0.25656,0.22997 0.0974,0.0727 0.15885,0.10979 0.19542,0.10979 h 0.1339 v 0.18101 h -0.91669 -0.42797 -0.42797 -0.91748 v -0.18101 h 0.13395 c 0.0488,0 0.0976,-0.025 0.1835,-0.0967 0.0976,-0.0723 0.18339,-0.15684 0.26914,-0.2424 0.0978,-0.0963 0.17144,-0.16913 0.23255,-0.25417 0.0729,-0.0963 0.0978,-0.15742 0.0978,-0.19356 v -7.00085 c 0,-0.0847 -0.0615,-0.21787 -0.18344,-0.38781 -0.12232,-0.1818 -0.25653,-0.35093 -0.42803,-0.53279 -0.1589,-0.19353 -0.31779,-0.35093 -0.47658,-0.48395 -0.14737,-0.1458 -0.26923,-0.20624 -0.34229,-0.20624 -0.0729,0 -0.18352,0.007 -0.37893,0.0851 -0.18344,0.061 -0.36691,0.1326 -0.58686,0.2298 -0.20807,0.0847 -0.40348,0.16996 -0.59895,0.26664 -0.18341,0.0847 -0.3177,0.15753 -0.41549,0.22983 v 0.0727 7.72715 c 0,0.0358 0.0367,0.0847 0.0976,0.18101 0.0728,0.0851 0.13394,0.16997 0.22002,0.26667 0.0977,0.0851 0.1715,0.1574 0.25716,0.22995 0.0974,0.0727 0.15888,0.10956 0.19539,0.10956 h 0.14671 v 0.18114 h -0.91652 -0.42806 -0.42799 -0.91658 v -0.18114 h 0.13386 c 0.0499,0 0.0977,-0.025 0.18342,-0.0971 0.0977,-0.0723 0.18346,-0.15682 0.26924,-0.24245 0.0974,-0.0963 0.17085,-0.16923 0.23191,-0.25419 0.0729,-0.0963 0.0978,-0.15734 0.0978,-0.1935 v -7.5097 c 0,-0.0611 -0.007,-0.13271 -0.0853,-0.22995 -0.0613,-0.10965 -0.12229,-0.20612 -0.21999,-0.30284 -0.086,-0.10902 -0.15889,-0.20556 -0.25654,-0.27856 -0.0861,-0.0847 -0.15894,-0.13276 -0.22009,-0.13276 l -0.13382,-0.0362 v -0.10819 l 1.60115,-0.46027 h 0.17089 v 1.12604 c 0.12234,-0.0963 0.30581,-0.20549 0.56228,-0.33905 0.26918,-0.14587 0.53782,-0.26663 0.80694,-0.38782 0.28114,-0.13269 0.52572,-0.24238 0.77047,-0.32735 0.24454,-0.0963 0.41536,-0.13266 0.51309,-0.13266 0.0491,0 0.12233,0.025 0.22005,0.108 0.0974,0.0727 0.19539,0.16989 0.3177,0.30297 0.12228,0.12115 0.24455,0.26664 0.3669,0.42418 0.12226,0.14581 0.24466,0.30281 0.34228,0.46017 0.0976,-0.0847 0.26871,-0.19348 0.53776,-0.33905 0.28118,-0.14587 0.56238,-0.27866 0.88065,-0.42416 0.31771,-0.1458 0.62347,-0.27857 0.90457,-0.37527 0.29332,-0.10878 0.48866,-0.15751 0.58698,-0.15751 0.0856,0 0.20793,0.0727 0.40345,0.25421 0.1954,0.1699 0.39154,0.37536 0.58691,0.60587 0.19539,0.21792 0.36694,0.44778 0.51317,0.67768 0.14731,0.2186 0.21998,0.38786 0.21998,0.49716 v 7.08567 c 0,0.0358 0.0367,0.0847 0.0978,0.18112 0.0728,0.0851 0.14723,0.1698 0.232,0.26669 0.0974,0.0851 0.17138,0.15739 0.25713,0.22984 0.0977,0.0727 0.15895,0.10992 0.19542,0.10992 h 0.13447 z"
       id="path1326-2" />
    <path
       style="fill:#ffffff;fill-opacity:1;stroke-width:0.56885"
       d="m 440.78784,528.69747 0.0978,0.10879 c -0.025,0.025 -0.0978,0.0611 -0.22003,0.12121 -0.12236,0.0495 -0.24467,0.0964 -0.39143,0.15753 -0.13395,0.0488 -0.25667,0.0963 -0.40349,0.14596 -0.13396,0.0357 -0.23201,0.0598 -0.28117,0.0598 -0.0495,0 -0.0978,-0.0358 -0.18338,-0.1093 -0.0728,-0.0722 -0.1474,-0.16987 -0.23261,-0.26659 -0.0729,-0.10901 -0.14737,-0.20548 -0.22004,-0.31477 -0.0728,-0.12142 -0.12237,-0.2061 -0.14673,-0.27853 -0.15896,0.0964 -0.34241,0.19358 -0.56244,0.30221 -0.20806,0.0972 -0.40344,0.1943 -0.61085,0.29109 -0.19549,0.0851 -0.36695,0.14574 -0.53773,0.21858 -0.15884,0.0598 -0.26922,0.0964 -0.33036,0.0964 -0.0728,0 -0.19541,-0.0964 -0.3669,-0.27855 -0.17142,-0.19428 -0.34221,-0.39969 -0.5131,-0.64205 -0.17151,-0.24239 -0.30584,-0.47226 -0.44062,-0.71511 -0.12237,-0.2423 -0.19542,-0.42347 -0.19542,-0.53216 0,-0.12165 0.0486,-0.27858 0.13385,-0.4604 0.0976,-0.19352 0.19543,-0.37535 0.33025,-0.58077 0.14734,-0.21867 0.29375,-0.42407 0.46458,-0.63015 0.1709,-0.21812 0.33042,-0.39917 0.48926,-0.55658 0.17087,-0.16987 0.31771,-0.29101 0.45265,-0.37535 0.14661,-0.0968 0.24458,-0.12117 0.31763,-0.0968 l 1.35735,0.48464 v -4.16661 c 0,-0.0722 -0.0367,-0.18167 -0.12257,-0.32719 -0.0728,-0.15677 -0.15882,-0.31473 -0.26903,-0.46024 -0.0978,-0.15745 -0.20809,-0.27857 -0.31786,-0.39975 -0.0978,-0.12129 -0.18335,-0.18123 -0.23261,-0.18123 -0.0852,0 -0.20797,0.0609 -0.37875,0.18123 -0.17087,0.12127 -0.31783,0.25425 -0.4887,0.4241 -0.15888,0.16986 -0.28107,0.31473 -0.40344,0.48403 -0.11098,0.15742 -0.15888,0.27858 -0.13391,0.35099 h -0.85547 c -0.025,-0.0964 0.0615,-0.21791 0.25657,-0.39968 0.19545,-0.19361 0.44001,-0.36342 0.70925,-0.5565 0.2811,-0.19421 0.56228,-0.35112 0.84354,-0.49667 0.29366,-0.14595 0.50108,-0.21837 0.64805,-0.21837 0.0976,0 0.23256,0.0607 0.40346,0.21837 0.18338,0.14594 0.36684,0.3268 0.5502,0.53286 0.19546,0.19363 0.3544,0.38779 0.48877,0.59338 0.14708,0.19356 0.2079,0.33911 0.2079,0.436 v 7.27913 c 0,0.0362 0.007,0.0964 0.0493,0.18186 0.0497,0.0717 0.0861,0.14596 0.1339,0.24233 0.0616,0.0847 0.11008,0.15736 0.15878,0.2297 0.0615,0.0602 0.11072,0.0964 0.13387,0.0964 0.0246,0 0.0729,-0.007 0.13389,-0.0245 0.0728,-0.025 0.13396,-0.0362 0.19549,-0.0611 0.0728,-0.025 0.13393,-0.0362 0.1835,-0.0598 0.0613,-0.0253 0.0977,-0.0502 0.0977,-0.0502 z m -1.99263,-3.64607 -1.35736,-0.42425 c -0.0616,-0.024 -0.15891,0.0497 -0.31766,0.23061 -0.14722,0.16915 -0.29378,0.37532 -0.45263,0.62957 -0.14727,0.24232 -0.2812,0.48406 -0.40347,0.75074 -0.11038,0.25412 -0.1714,0.44776 -0.1714,0.59329 0,0.0976 0.0367,0.24235 0.1339,0.44837 0.0978,0.19369 0.208,0.38787 0.33023,0.60535 0.12255,0.20594 0.24462,0.37537 0.36698,0.54524 0.1223,0.1574 0.21996,0.24225 0.26856,0.24225 0.0497,0 0.13384,-0.025 0.2571,-0.0498 0.13387,-0.0358 0.26866,-0.0847 0.41551,-0.13267 0.15877,-0.0611 0.30573,-0.12117 0.4772,-0.18115 0.17085,-0.0727 0.33023,-0.13262 0.452,-0.18178 v -3.07654 z"
       id="path1327-9" />
    <path
       style="fill:#ffffff;fill-opacity:1;stroke-width:0.56885"
       d="m 441.61824,527.51026 h 0.13385 c 0.007,0.007 0.025,0.0487 0.0613,0.14593 0.0495,0.0847 0.0728,0.13266 0.0728,0.15743 0.0251,0.048 0.0976,0.13259 0.24459,0.25419 0.14726,0.1212 0.31777,0.24233 0.48922,0.37542 0.18343,0.12129 0.3422,0.22975 0.51311,0.35089 0.17089,0.10873 0.29328,0.18185 0.36693,0.20618 0.14732,0.0245 0.23256,0.0362 0.2811,0.0362 0.0728,0 0.17092,-0.0847 0.31784,-0.27859 0.14724,-0.1935 0.29364,-0.41143 0.43999,-0.66566 0.15894,-0.26664 0.29367,-0.52095 0.40347,-0.76378 0.12242,-0.25426 0.17147,-0.43606 0.17147,-0.55663 0,-0.0727 -0.0615,-0.20605 -0.18343,-0.43653 -0.12241,-0.24233 -0.25664,-0.4721 -0.42803,-0.7387 -0.15887,-0.26671 -0.31783,-0.50849 -0.48921,-0.72647 -0.1589,-0.23051 -0.28124,-0.36406 -0.35429,-0.41218 -0.0616,-0.0486 -0.14734,-0.14597 -0.26917,-0.29103 -0.11021,-0.14586 -0.23203,-0.31537 -0.37885,-0.50848 -0.13393,-0.19417 -0.28127,-0.41154 -0.42803,-0.62958 -0.14671,-0.22983 -0.26868,-0.43598 -0.39149,-0.62951 -0.1224,-0.20621 -0.22001,-0.37538 -0.29324,-0.52086 -0.0727,-0.15748 -0.10984,-0.26671 -0.10984,-0.31542 0,-0.0964 0.0499,-0.21792 0.12238,-0.36343 0.0851,-0.15742 0.18343,-0.32737 0.3058,-0.5084 0.13389,-0.19427 0.26913,-0.36355 0.42805,-0.55716 0.17143,-0.19369 0.31826,-0.37536 0.46459,-0.52089 0.15891,-0.15739 0.29367,-0.27851 0.41546,-0.37546 0.13388,-0.10923 0.23188,-0.15727 0.3057,-0.15727 0.0497,0 0.15881,0.007 0.33031,0.0851 0.18352,0.0598 0.36696,0.12131 0.56236,0.21799 0.19543,0.0847 0.36678,0.16981 0.53765,0.25426 0.17156,0.0722 0.28124,0.13258 0.30583,0.18171 l -0.11044,0.0964 0.11044,-0.0964 v 1.10181 h -0.14715 c 0,-0.025 -0.007,-0.0611 -0.0485,-0.15746 -0.025,-0.0964 -0.0502,-0.15685 -0.0616,-0.16928 0,-0.0485 -0.0613,-0.12129 -0.1588,-0.24292 -0.0978,-0.1212 -0.20807,-0.24221 -0.33044,-0.37527 -0.12231,-0.14543 -0.23199,-0.2542 -0.35473,-0.36353 -0.11003,-0.12126 -0.1835,-0.18121 -0.232,-0.19366 v -0.007 c -0.0974,-0.0498 -0.18354,-0.0727 -0.25672,-0.0964 -0.0727,-0.0362 -0.12224,-0.0488 -0.14723,-0.0488 -0.0728,0 -0.18348,0.0847 -0.34244,0.25417 -0.14706,0.1699 -0.29367,0.36347 -0.45251,0.5934 -0.14676,0.21851 -0.28114,0.43586 -0.40351,0.66637 -0.12221,0.21848 -0.18341,0.38783 -0.18341,0.49659 0,0.0611 0.0858,0.20601 0.23254,0.47269 0.1589,0.25424 0.34237,0.5209 0.53779,0.81126 0.20747,0.29104 0.40347,0.54524 0.5989,0.81187 0.20805,0.25428 0.3549,0.41166 0.45265,0.48422 0.0852,0.0486 0.20739,0.20599 0.37889,0.4602 0.17089,0.24239 0.34225,0.52089 0.51309,0.81189 0.18346,0.29046 0.34243,0.55661 0.4647,0.82329 0.13379,0.26658 0.19545,0.43652 0.19545,0.52081 0,0.0847 -0.0367,0.20613 -0.12227,0.38778 -0.0728,0.16988 -0.17162,0.35112 -0.31835,0.56958 -0.1339,0.20564 -0.26869,0.41221 -0.44007,0.62964 -0.15886,0.21799 -0.3178,0.39975 -0.47667,0.58094 -0.1467,0.16984 -0.29305,0.30292 -0.428,0.42408 -0.12224,0.10888 -0.23198,0.16986 -0.30568,0.16986 -0.0616,0 -0.19548,-0.007 -0.41605,-0.0487 -0.20804,-0.0487 -0.42742,-0.0723 -0.67262,-0.12119 -0.2446,-0.0487 -0.45262,-0.0847 -0.66015,-0.13267 -0.19541,-0.0491 -0.31816,-0.0847 -0.36679,-0.10887 v -1.30787 z"
       id="path1328-3" />
    <path
       style="fill:#ffffff;fill-opacity:1;stroke-width:0.56885"
       d="m 410.79826,502.80808 v 0.18174 h -0.13393 c -0.0367,0 -0.0973,0.0249 -0.18344,0.0963 -0.0729,0.0611 -0.14724,0.13268 -0.24451,0.22993 -0.0863,0.0851 -0.14734,0.16983 -0.22013,0.26668 -0.0612,0.0851 -0.0974,0.14594 -0.0974,0.19415 l 0.30579,10.02858 c 0,0.0362 0.025,0.0851 0.0973,0.18186 0.0728,0.0847 0.1589,0.16983 0.2446,0.26664 0.0978,0.0847 0.18342,0.15741 0.26918,0.22978 0.0978,0.0724 0.15891,0.1089 0.19551,0.1089 h 0.13393 v 0.18184 h -0.91667 -0.48916 -0.50127 -0.91661 v -0.18183 h 0.13388 c 0.0494,0 0.0978,-0.025 0.1836,-0.0963 0.0974,-0.0727 0.17133,-0.15744 0.25651,-0.24229 0.0976,-0.0963 0.1589,-0.16992 0.22001,-0.25419 0.0724,-0.097 0.0978,-0.15744 0.0978,-0.19428 l -0.22006,-9.94366 -3.1785,10.9736 h -0.24455 l -0.11047,-0.39973 -2.90934,-10.1861 -0.24459,9.37535 c 0,0.0488 0.0497,0.12112 0.12251,0.22981 0.0863,0.0963 0.18353,0.19367 0.28113,0.31488 0.10969,0.10938 0.20806,0.19412 0.3179,0.29097 0.12215,0.0851 0.19539,0.13262 0.24454,0.13262 h 0.35475 v 0.18177 h -1.34459 -0.14738 -0.14703 -0.91676 v -0.18164 h 0.14742 c 0.0502,0 0.0975,-0.025 0.18345,-0.0963 0.0976,-0.0727 0.1834,-0.15735 0.26906,-0.24229 0.0976,-0.0963 0.15895,-0.16986 0.23264,-0.25426 0.0726,-0.0969 0.1101,-0.15736 0.1101,-0.19417 l 0.25666,-10.02865 c 0,-0.0489 -0.0249,-0.12117 -0.0974,-0.20601 -0.0616,-0.0964 -0.12241,-0.1693 -0.22008,-0.25424 -0.086,-0.0964 -0.17142,-0.16928 -0.25653,-0.22986 -0.0728,-0.0723 -0.13399,-0.0964 -0.18345,-0.0964 h -0.13404 v -0.18172 c 0.0245,0 0.0978,0 0.19539,0 0.10978,-0.008 0.20748,-0.008 0.33043,-0.008 0.12229,0 0.24461,-0.008 0.34216,0 0.11114,0 0.17153,0.008 0.19551,0.008 h 0.14742 0.51307 l 2.90929,10.4647 2.95869,-10.4647 h 0.33016 0.12234 c 0.0367,0 0.12226,0 0.2446,0 0.13389,-0.008 0.28111,-0.008 0.42802,-0.008 0.15891,0 0.29314,-0.008 0.42808,0 0.14497,-4.5e-4 0.23032,0.007 0.25485,0.007 z"
       id="path1329-9" />
    <path
       style="fill:#ffffff;fill-opacity:1;stroke-width:0.56885"
       d="m 416.95873,514.13325 c -0.0367,0.025 -0.17091,0.0847 -0.41548,0.16929 -0.23204,0.0727 -0.48865,0.14586 -0.78237,0.2304 -0.28118,0.0722 -0.53782,0.13271 -0.8069,0.20545 -0.25661,0.0611 -0.42807,0.0964 -0.52574,0.0964 -0.0728,0 -0.18346,-0.0847 -0.35488,-0.27851 -0.15899,-0.19368 -0.33032,-0.43593 -0.52574,-0.73893 -0.18353,-0.31476 -0.37887,-0.64196 -0.57435,-1.00492 -0.19544,-0.37538 -0.35429,-0.73888 -0.52583,-1.0904 -0.15889,-0.36357 -0.28109,-0.67774 -0.39147,-0.98071 -0.0977,-0.3153 -0.15876,-0.5452 -0.15876,-0.7026 0,-0.19359 0.0615,-0.43596 0.17085,-0.77503 0.12236,-0.33922 0.25662,-0.71459 0.42802,-1.10185 0.18334,-0.39974 0.37937,-0.79938 0.59883,-1.21153 0.22009,-0.41222 0.42808,-0.77515 0.63554,-1.11427 0.22005,-0.33915 0.40346,-0.60524 0.57488,-0.82377 0.18349,-0.21799 0.31774,-0.32669 0.41543,-0.32669 0.0863,0 0.19551,0.0598 0.33039,0.20557 0.14724,0.14573 0.28113,0.32718 0.4526,0.54516 0.1714,0.21799 0.34227,0.46031 0.51319,0.73885 0.17147,0.26669 0.31827,0.53274 0.46456,0.79945 0.14727,0.25419 0.26918,0.48407 0.35485,0.71506 0.0974,0.21795 0.13398,0.39921 0.13398,0.52088 h -3.82652 c -0.0974,0.31485 -0.17148,0.60524 -0.24461,0.8719 -0.0613,0.26671 -0.0974,0.47221 -0.0974,0.62957 0,0.1459 0.0367,0.37538 0.13388,0.6664 0.0978,0.29103 0.22013,0.6052 0.36693,0.94453 0.14733,0.33955 0.31767,0.67822 0.48917,1.04164 0.18347,0.3516 0.35428,0.67824 0.52567,0.96927 0.17094,0.29103 0.32981,0.50838 0.47668,0.70211 0.14731,0.18166 0.26918,0.27857 0.34224,0.27857 0.0728,0 0.1955,-0.008 0.379,-0.0362 0.19535,-0.025 0.37888,-0.0489 0.57424,-0.0727 0.1955,-0.0361 0.37888,-0.0719 0.52577,-0.0963 0.15881,-0.0362 0.24461,-0.0611 0.25655,-0.0611 z m -3.7528,-6.10454 2.57955,-0.12131 c 0.025,-0.025 0.0485,-0.0362 0.0978,-0.0727 0.0493,-0.0483 0.0852,-0.0723 0.13389,-0.12117 0.0501,-0.0486 0.0856,-0.0964 0.11018,-0.13266 0.0367,-0.0485 0.0497,-0.0714 0.0497,-0.0847 0,-0.14594 -0.0497,-0.35107 -0.18352,-0.62961 -0.1225,-0.29098 -0.26917,-0.56953 -0.44008,-0.86004 -0.17136,-0.29103 -0.33032,-0.54522 -0.50169,-0.76316 -0.17089,-0.21862 -0.29318,-0.32733 -0.37892,-0.32733 -0.0616,0 -0.14735,0.0847 -0.26917,0.27862 -0.12229,0.19365 -0.24463,0.43654 -0.39146,0.73883 -0.13387,0.291 -0.26918,0.62965 -0.41549,1.00503 -0.14669,0.364 -0.26863,0.72691 -0.39022,1.09036 z"
       id="path1330-0" />
    <path
       style="fill:#ffffff;fill-opacity:1;stroke-width:0.56885"
       d="m 418.13138,505.31565 v -0.10881 l 1.47892,-0.46031 h 0.1709 l 0.11081,1.1873 h 0.007 v 0.10925 c 0.0978,-0.12122 0.22004,-0.2542 0.40345,-0.39966 0.19546,-0.15693 0.36691,-0.29051 0.5624,-0.43604 0.19544,-0.1459 0.36682,-0.26669 0.53771,-0.36347 0.17137,-0.11004 0.29372,-0.15737 0.34229,-0.15737 0.0729,0 0.17092,0.0249 0.29378,0.0723 0.12232,0.0488 0.23197,0.0851 0.35424,0.15736 0.12246,0.0608 0.23264,0.12116 0.3178,0.19427 0.0977,0.0607 0.13389,0.10935 0.13389,0.13263 0,0.0245 0,0.048 -0.0488,0.0963 -0.0367,0.048 -0.0728,0.0847 -0.12245,0.13261 -0.0485,0.048 -0.0856,0.0723 -0.13392,0.12134 -0.049,0.0362 -0.0857,0.0598 -0.11004,0.0598 -0.025,0 -0.0977,-0.008 -0.24462,-0.0483 -0.13387,-0.0489 -0.2691,-0.0851 -0.42743,-0.12119 -0.14728,-0.0494 -0.2937,-0.0727 -0.42805,-0.10911 -0.12236,-0.0484 -0.20742,-0.0598 -0.25653,-0.0598 -0.0367,0 -0.0977,0.008 -0.20747,0.0847 -0.0977,0.0611 -0.20802,0.12124 -0.33036,0.21854 -0.12225,0.0847 -0.23257,0.16931 -0.35488,0.27801 -0.1223,0.0967 -0.20795,0.1942 -0.28115,0.26663 v 7.64272 c 0,0.0362 0.0367,0.0851 0.0977,0.18185 0.0728,0.0847 0.13385,0.16983 0.21991,0.26667 0.0978,0.0847 0.17094,0.1574 0.25657,0.2298 0.0976,0.0724 0.15891,0.10931 0.19546,0.10931 h 0.14679 v 0.1818 h -0.91674 -0.42801 -0.42797 -0.91672 v -0.1818 h 0.1339 c 0.0493,0 0.0974,-0.025 0.18334,-0.0963 0.0977,-0.0727 0.18357,-0.15742 0.26924,-0.24233 0.0978,-0.0963 0.17092,-0.16984 0.23206,-0.25416 0.0728,-0.0969 0.0975,-0.15747 0.0975,-0.19428 v -7.50971 c 0,-0.0598 -0.007,-0.13267 -0.0861,-0.22986 -0.0613,-0.10901 -0.12246,-0.20539 -0.21997,-0.30289 -0.0856,-0.10868 -0.15899,-0.20554 -0.2566,-0.27792 -0.0863,-0.0851 -0.15889,-0.13264 -0.22006,-0.13264 z"
       id="path1331-8" />
    <path
       style="fill:#ffffff;fill-opacity:1;stroke-width:0.56885"
       d="m 423.51,505.31565 v -0.10881 l 1.479,-0.46031 h 0.17086 l 0.11102,1.1873 h 0.007 v 0.10925 c 0.0978,-0.12122 0.22001,-0.2542 0.40342,-0.39966 0.19546,-0.15693 0.36688,-0.29051 0.56232,-0.43604 0.19548,-0.1459 0.36698,-0.26669 0.5378,-0.36347 0.17142,-0.11004 0.29375,-0.15737 0.34234,-0.15737 0.0724,0 0.17085,0.0249 0.29368,0.0723 0.12233,0.0488 0.23209,0.0851 0.35432,0.15736 0.12251,0.0608 0.23258,0.12116 0.31778,0.19427 0.0978,0.0607 0.13389,0.10935 0.13389,0.13263 0,0.0245 0,0.048 -0.0492,0.0963 -0.0367,0.048 -0.0728,0.0847 -0.12235,0.13261 -0.0486,0.048 -0.0856,0.0723 -0.13384,0.12134 -0.0483,0.0362 -0.0856,0.0598 -0.11015,0.0598 -0.0251,0 -0.0976,-0.008 -0.24467,-0.0483 -0.1338,-0.0489 -0.26918,-0.0851 -0.42805,-0.12119 -0.14731,-0.0494 -0.29376,-0.0727 -0.42805,-0.10911 -0.12239,-0.0484 -0.20739,-0.0598 -0.25659,-0.0598 -0.0367,0 -0.0976,0.008 -0.20743,0.0847 -0.0976,0.0611 -0.20797,0.12124 -0.33026,0.21854 -0.12248,0.0847 -0.23262,0.16931 -0.35491,0.27801 -0.12233,0.0967 -0.20799,0.1942 -0.28113,0.26663 v 7.64272 c 0,0.0362 0.0367,0.0851 0.0977,0.18185 0.0732,0.0847 0.1339,0.16983 0.21997,0.26667 0.0978,0.0847 0.1715,0.1574 0.25712,0.2298 0.0976,0.0724 0.15893,0.10931 0.19548,0.10931 h 0.14671 v 0.1818 h -0.91664 -0.42802 -0.42799 -0.9167 v -0.1818 h 0.13388 c 0.0499,0 0.0978,-0.025 0.18342,-0.0963 0.0978,-0.0727 0.18348,-0.15742 0.26918,-0.24233 0.0978,-0.0963 0.17093,-0.16984 0.23208,-0.25416 0.0729,-0.0969 0.0975,-0.15747 0.0975,-0.19428 v -7.50971 c 0,-0.0598 -0.007,-0.13267 -0.0854,-0.22986 -0.0613,-0.10901 -0.12236,-0.20539 -0.22,-0.30289 -0.086,-0.10868 -0.15892,-0.20554 -0.25662,-0.27792 -0.0863,-0.0851 -0.15884,-0.13264 -0.22004,-0.13264 z"
       id="path1332-8" />
    <path
       style="fill:#ffffff;fill-opacity:1;stroke-width:0.56885"
       d="m 435.63722,504.74609 v 0.18171 h -0.13386 c -0.0367,0 -0.0976,0.0249 -0.20804,0.0964 -0.0973,0.061 -0.19546,0.13265 -0.3178,0.22987 -0.11033,0.0851 -0.20799,0.16986 -0.30572,0.2667 -0.0863,0.0851 -0.13392,0.14575 -0.14733,0.19417 l -2.32242,9.18104 -0.19536,0.75074 c -0.025,0.12133 -0.13394,0.2786 -0.31787,0.49659 -0.17137,0.218 -0.36677,0.42403 -0.59883,0.64204 -0.2201,0.20603 -0.4401,0.38784 -0.66008,0.54523 -0.21995,0.14589 -0.3789,0.22977 -0.47716,0.22977 -0.049,0 -0.11031,-0.007 -0.20801,-0.0598 -0.0976,-0.049 -0.19545,-0.0967 -0.29316,-0.14581 -0.0978,-0.0605 -0.18345,-0.12133 -0.25665,-0.1699 -0.0732,-0.0598 -0.11013,-0.0963 -0.11013,-0.12118 0,-0.025 0.007,-0.0489 0.0492,-0.0847 0.0492,-0.0485 0.0858,-0.0851 0.13391,-0.1213 0.0491,-0.0488 0.0976,-0.0727 0.14672,-0.0968 0.0501,-0.0358 0.0857,-0.0486 0.11093,-0.0486 0.0251,0 0.0728,0.007 0.17079,0.0486 0.0978,0.025 0.20803,0.049 0.30573,0.0968 0.1102,0.0362 0.19544,0.0598 0.29322,0.0964 0.0976,0.025 0.15879,0.0486 0.18341,0.0486 0.0615,0 0.1473,-0.0486 0.28111,-0.16937 0.1473,-0.12116 0.26922,-0.25418 0.41608,-0.41157 0.14669,-0.16975 0.26853,-0.31521 0.39143,-0.47218 0.12226,-0.16987 0.19549,-0.29099 0.22008,-0.37535 l 0.23261,-0.79946 -2.3111,-9.05987 c 0,-0.0487 -0.0487,-0.10901 -0.14717,-0.19417 -0.0852,-0.0964 -0.17081,-0.18124 -0.2931,-0.26668 -0.11087,-0.0964 -0.20804,-0.1693 -0.31784,-0.22989 -0.0976,-0.0723 -0.17143,-0.0964 -0.21997,-0.0964 h -0.13389 V 504.746 c 0.0367,0 0.10996,0 0.24461,0 0.14731,-0.008 0.28114,-0.008 0.42805,-0.008 0.15892,0 0.2932,-0.008 0.42742,0 0.14718,0 0.23261,0.008 0.25663,0.008 0.0497,0 0.12242,0 0.25659,0 0.14722,-0.008 0.28114,-0.008 0.44059,-0.008 0.17085,0 0.31776,-0.008 0.45259,0 0.1467,0 0.23201,0.008 0.25659,0.008 v 0.18172 h -0.13388 c -0.025,0 -0.0728,0.0249 -0.14716,0.0964 -0.0728,0.0602 -0.12245,0.13267 -0.19539,0.22989 -0.0616,0.0851 -0.10973,0.16985 -0.15894,0.26668 -0.0367,0.0851 -0.0488,0.14577 -0.0488,0.19417 l 1.77273,7.53407 1.80924,-7.53407 c 0.007,-0.0487 0,-0.10901 -0.0488,-0.19417 -0.0367,-0.0964 -0.0862,-0.18124 -0.15885,-0.26668 -0.0614,-0.0964 -0.12223,-0.1693 -0.19552,-0.22989 -0.0615,-0.0723 -0.1101,-0.0964 -0.15882,-0.0964 h -0.12236 c 0,-0.008 -0.007,-0.0249 -0.007,-0.0489 0,-0.0242 0.007,-0.0481 0.007,-0.0481 0,-0.0249 -0.007,-0.0362 -0.007,-0.0611 0,-0.0249 0.007,-0.0362 0.007,-0.0249 0.0246,0 0.0854,0 0.18356,0 0.10998,0 0.20802,0 0.33026,0 0.12234,0 0.2446,0 0.34232,0 0.11025,0 0.1709,0 0.1954,0 0.0245,0 0.0854,0 0.18349,0 0.11076,-0.008 0.21997,-0.008 0.33029,-0.008 0.12235,0 0.22,-0.008 0.3178,0 0.0957,-4.2e-4 0.15653,0.007 0.18111,0.007 z"
       id="path1333-5" />
    <path
       style="fill:#ffffff;fill-opacity:1;stroke-width:0.56885"
       d="m 393.07924,533.798 -0.2846,-0.28127 c -0.18909,0.18133 -0.42799,0.27234 -0.7155,0.27234 -0.1422,0 -0.27079,-0.0233 -0.38517,-0.0696 -0.11467,-0.0468 -0.2035,-0.11255 -0.26747,-0.19608 -0.0636,-0.0843 -0.0965,-0.17877 -0.0965,-0.28591 0,-0.12941 0.0398,-0.24392 0.1215,-0.34367 0.0809,-0.10002 0.21308,-0.20211 0.39879,-0.30742 -0.0939,-0.0929 -0.16,-0.17711 -0.19887,-0.2513 -0.0378,-0.0738 -0.0583,-0.1529 -0.0583,-0.23328 0,-0.1437 0.0534,-0.25815 0.15778,-0.34476 0.10469,-0.0871 0.24517,-0.12997 0.41999,-0.12997 0.16286,0 0.29259,0.0389 0.3886,0.11842 0.0962,0.0788 0.14447,0.18687 0.14447,0.32372 0,0.10668 -0.035,0.20281 -0.1051,0.28774 -0.0701,0.0851 -0.18745,0.17377 -0.35032,0.26659 l 0.52919,0.52145 c 0.0613,-0.11553 0.10469,-0.24332 0.13117,-0.38505 l 0.23541,0.0765 c -0.0367,0.18565 -0.099,0.34711 -0.18626,0.48412 l 0.28747,0.28481 z m -0.45837,-0.45118 -0.60861,-0.59998 c -0.1473,0.0816 -0.24915,0.1556 -0.30743,0.22531 -0.0588,0.0696 -0.0876,0.14845 -0.0876,0.23486 0,0.10063 0.045,0.18236 0.13296,0.24515 0.0884,0.0626 0.20413,0.0936 0.34693,0.0936 0.21195,0 0.3857,-0.0659 0.52282,-0.19947 z m -0.67435,-1.43742 c -0.0545,0.0478 -0.0818,0.10957 -0.0818,0.18625 0,0.0555 0.0154,0.10658 0.0447,0.15745 0.0294,0.0509 0.088,0.11936 0.17261,0.20611 0.14072,-0.0794 0.23829,-0.14702 0.292,-0.20274 0.0541,-0.0571 0.0818,-0.11843 0.0818,-0.18516 0,-0.07 -0.0253,-0.12724 -0.0739,-0.16938 -0.0507,-0.042 -0.12011,-0.0638 -0.20964,-0.0638 -0.0958,0 -0.17096,0.0246 -0.22464,0.0704 z"
       id="path1334-0" />
    <path
       style="fill:#ffffff;fill-opacity:1;stroke-width:0.56885"
       d="m 398.90307,531.64438 v 2.12027 h -0.30574 v -0.94492 h -1.22931 v 0.94492 h -0.3057 v -2.12027 h 0.3057 v 0.91146 h 1.22931 v -0.91146 z"
       id="path1335-9" />
    <path
       style="fill:#ffffff;fill-opacity:1;stroke-width:0.56885"
       d="m 402.22325,533.23412 h -1.13714 l -0.23545,0.52987 h -0.31491 l 0.96928,-2.12019 h 0.30279 l 0.97215,2.12019 h -0.32123 z m -0.10629,-0.24171 -0.46172,-1.03884 -0.46176,1.03884 z"
       id="path1336-6" />
    <path
       style="fill:#ffffff;fill-opacity:1;stroke-width:0.56885"
       d="m 405.90132,531.84147 c 0.15881,0.13046 0.23832,0.31197 0.23832,0.54237 0,0.2299 -0.0797,0.41095 -0.23832,0.54187 -0.15885,0.13105 -0.37725,0.19689 -0.65437,0.19689 h -0.52918 v 0.64258 h -0.30565 v -2.12021 h 0.83483 c 0.27777,-4.3e-4 0.49604,0.0649 0.65437,0.1965 z m -0.22006,0.89516 c 0.10206,-0.0824 0.15327,-0.19988 0.15327,-0.35279 0,-0.15357 -0.0514,-0.27177 -0.15327,-0.35329 -0.10158,-0.0824 -0.24963,-0.12264 -0.44291,-0.12264 h -0.51994 v 0.95119 h 0.51994 c 0.19384,-3.3e-4 0.34116,-0.0413 0.44291,-0.12299 z"
       id="path1337-3" />
    <path
       style="fill:#ffffff;fill-opacity:1;stroke-width:0.56885"
       d="m 409.39294,531.84147 c 0.15896,0.13046 0.23836,0.31197 0.23836,0.54237 0,0.2299 -0.0796,0.41095 -0.23836,0.54187 -0.15878,0.13105 -0.37712,0.19689 -0.65433,0.19689 h -0.52921 v 0.64258 h -0.30563 v -2.12021 h 0.83484 c 0.27721,-4.3e-4 0.49555,0.0649 0.65433,0.1965 z m -0.21999,0.89516 c 0.10197,-0.0824 0.15326,-0.19988 0.15326,-0.35279 0,-0.15357 -0.0514,-0.27177 -0.15326,-0.35329 -0.10155,-0.0824 -0.24912,-0.12264 -0.44282,-0.12264 h -0.52015 v 0.95119 h 0.52015 c 0.19309,-3.3e-4 0.34058,-0.0413 0.44282,-0.12299 z"
       id="path1338-8" />
    <path
       style="fill:#ffffff;fill-opacity:1;stroke-width:0.56885"
       d="m 412.21493,533.03156 v 0.73309 h -0.30291 v -0.7393 l -0.84971,-1.38097 h 0.32735 l 0.68466,1.11768 0.6881,-1.11768 h 0.30293 z"
       id="path1339-5" />
    <path
       style="fill:#ffffff;fill-opacity:1;stroke-width:0.56885"
       d="m 418.66566,531.64438 v 2.12027 h -0.25039 l -1.28402,-1.58119 v 1.58119 h -0.30572 v -2.12027 h 0.25089 l 1.28411,1.58129 v -1.58129 z"
       id="path1340-6" />
    <path
       style="fill:#ffffff;fill-opacity:1;stroke-width:0.56885"
       d="m 422.17505,533.50088 v 0.26377 h -1.55327 v -2.12027 h 1.51046 v 0.26382 h -1.20464 v 0.65107 h 1.0732 v 0.25774 h -1.0732 v 0.68441 h 1.24745 z"
       id="path1341-1" />
    <path
       style="fill:#ffffff;fill-opacity:1;stroke-width:0.56885"
       d="m 426.97891,531.64438 -0.71555,2.12027 h -0.32115 l -0.58342,-1.69334 -0.58416,1.69334 h -0.32739 l -0.71492,-2.12027 h 0.3149 l 0.57776,1.72339 0.60232,-1.72339 h 0.28108 l 0.59042,1.73308 0.59031,-1.73308 z"
       id="path1342-1" />
    <path
       style="fill:#ffffff;fill-opacity:1;stroke-width:0.56885"
       d="m 431.66838,533.03156 v 0.73309 h -0.30287 v -0.7393 l -0.84981,-1.38097 h 0.32743 l 0.6846,1.11768 0.68808,-1.11768 h 0.30288 z"
       id="path1343-5" />
    <path
       style="fill:#ffffff;fill-opacity:1;stroke-width:0.56885"
       d="m 435.65838,533.50088 v 0.26377 h -1.55331 v -2.12027 h 1.51042 v 0.26382 h -1.20468 v 0.65107 h 1.07327 v 0.25774 h -1.07327 v 0.68441 h 1.24757 z"
       id="path1344-9" />
    <path
       style="fill:#ffffff;fill-opacity:1;stroke-width:0.56885"
       d="m 438.83173,533.23412 h -1.1373 l -0.23547,0.52987 h -0.31481 l 0.9692,-2.12019 h 0.30301 l 0.97193,2.12019 h -0.32108 z m -0.10636,-0.24171 -0.46164,-1.03884 -0.46172,1.03884 z"
       id="path1345-8" />
    <path
       style="fill:#ffffff;fill-opacity:1;stroke-width:0.56885"
       d="m 442.45143,533.76465 -0.46176,-0.65112 c -0.0572,0.002 -0.10198,0.004 -0.13392,0.004 h -0.5292 v 0.6454 h -0.3057 v -2.1202 h 0.8349 c 0.27716,0 0.49546,0.0653 0.65435,0.19699 0.15883,0.13041 0.23825,0.31199 0.23825,0.54228 0,0.16323 -0.0401,0.30251 -0.12237,0.41794 -0.0821,0.11541 -0.19779,0.19864 -0.3487,0.25084 l 0.50748,0.71216 h -0.33313 z m -0.16176,-1.02641 c 0.10199,-0.0829 0.1533,-0.20107 0.1533,-0.3544 0,-0.15357 -0.0514,-0.27177 -0.1533,-0.35329 -0.10153,-0.0824 -0.24919,-0.12264 -0.44282,-0.12264 h -0.52009 v 0.95414 h 0.52009 c 0.19312,-4.2e-4 0.34114,-0.0416 0.44282,-0.12403 z"
       id="path1346-4" />
    <path
       inkscape:connector-curvature="0"
       id="path16507-1-3"
       d="m 391.93591,504.83197 c -0.071,0.079 -0.14256,0.15805 -0.2133,0.23647 -0.002,0.0727 0.18032,0.64668 0.21977,0.71584 -7.7e-4,0.002 -7.7e-4,0.009 -7.7e-4,0.01 -0.16083,0.009 -0.35923,-0.0647 -0.52946,-0.10342 -0.0711,0.0791 -0.14256,0.1581 -0.21323,0.23643 0.0319,0.0976 0.0647,0.19826 0.0964,0.29631 0.0269,0.0371 0.16762,0.0479 0.22315,0.0603 0.20508,0.0429 0.40798,0.087 0.61266,0.12932 0.0274,0.0897 0.055,0.17853 0.0826,0.26966 -1.9e-4,7.5e-4 2.8e-4,7.5e-4 0,7.5e-4 -0.14628,-0.029 -0.29237,-0.0577 -0.43953,-0.087 -0.071,0.0791 -0.14252,0.16033 -0.21325,0.23974 0.0329,0.10261 0.0638,0.2037 0.0965,0.30627 0.12682,0.0259 0.25315,0.05 0.37958,0.077 -0.21293,0.23753 -0.4263,0.4749 -0.63927,0.71251 -0.0303,-0.0231 -0.11859,-0.31806 -0.12218,-0.36961 -0.10382,-0.0231 -0.20613,-0.0431 -0.3096,-0.0662 -0.0721,0.0774 -0.14402,0.15241 -0.21639,0.22981 0.0382,0.13546 0.0748,0.27066 0.1128,0.40616 -0.0952,-0.0231 -0.19137,-0.0435 -0.28632,-0.066 -0.08,-0.26091 -0.15966,-0.5247 -0.23967,-0.78575 -0.10522,-0.0231 -0.21056,-0.0428 -0.31634,-0.0664 -0.071,0.0792 -0.1427,0.15806 -0.21325,0.23637 0.0522,0.16863 0.10435,0.33723 0.15741,0.50606 -7.6e-4,0.002 -7.6e-4,0.01 -7.6e-4,0.0119 -0.24356,-0.0539 -0.48576,-0.11034 -0.72906,-0.16218 -0.0763,0.0782 -0.15304,0.15874 -0.22985,0.23645 0.0319,0.10615 0.0648,0.21245 0.0963,0.31958 0.24333,0.0539 0.48561,0.11031 0.72908,0.16215 0.002,7.8e-4 0.009,7.8e-4 0.01,0.002 -0.12047,0.13484 -0.23908,0.26857 -0.35962,0.40291 0.0319,0.0976 0.0613,0.19828 0.0937,0.29627 0.0141,0.0284 0.25882,0.0691 0.31636,0.0799 0.18988,-0.21227 0.37983,-0.42359 0.56932,-0.63593 0.096,0.0125 0.19044,0.0321 0.28636,0.0498 7.6e-4,7.6e-4 7.6e-4,0.009 7.6e-4,0.01 -0.0995,0.11345 -0.19964,0.22894 -0.29961,0.3429 0.0291,0.0959 0.0577,0.19068 0.087,0.28628 0.0639,0.0486 0.22761,0.0613 0.31957,0.0799 0.0861,-0.0958 0.17023,-0.19081 0.25638,-0.2863 7.7e-4,0 7.7e-4,-8e-5 7.7e-4,0 0.029,0.0885 0.0578,0.17728 0.087,0.26631 0.0679,0.21706 0.13755,0.43542 0.20653,0.65263 -0.12351,-0.0291 -0.24904,-0.0577 -0.37288,-0.087 -0.0747,0.08 -0.14869,0.15968 -0.22307,0.23972 0.0329,0.10262 0.0638,0.20429 0.0964,0.30639 0.13014,0.0291 0.26176,0.0577 0.39293,0.087 -0.0643,0.0737 -0.12851,0.14547 -0.193,0.21975 -0.26335,-0.0602 -0.52559,-0.11981 -0.78902,-0.17891 -0.0721,0.0774 -0.14402,0.15661 -0.21637,0.23306 0.0291,0.0972 0.0579,0.19514 0.087,0.29297 0.0727,0.0671 0.39825,0.10986 0.52944,0.13627 7.6e-4,7.6e-4 7.6e-4,0.009 7.6e-4,0.01 -0.16789,0.18616 -0.33497,0.37254 -0.50275,0.55934 0.0311,0.10253 0.0621,0.20448 0.0937,0.30627 0.0648,0.049 0.22957,0.0611 0.32301,0.0799 0.1679,-0.18619 0.33815,-0.37255 0.50603,-0.55938 7.8e-4,-7.6e-4 0.002,-7.6e-4 0.009,-7.6e-4 0.0542,0.16756 0.10987,0.33532 0.16214,0.50275 0.063,0.0479 0.22218,0.0613 0.31296,0.0799 0.0709,-0.0779 0.14306,-0.1545 0.2133,-0.2331 0.0124,-0.048 -0.041,-0.15061 -0.0567,-0.19984 -0.0668,-0.20636 -0.13592,-0.41308 -0.2028,-0.61929 0.0622,-0.072 0.12483,-0.14421 0.186,-0.21639 0.002,-7.5e-4 0.01,-0.002 0.0141,-0.002 0.0461,0.14161 0.0902,0.28237 0.13623,0.42298 0.0141,0.0291 0.26158,0.0679 0.31968,0.0799 0.0711,-0.0791 0.14268,-0.15808 0.21328,-0.23645 -0.0391,-0.12215 -0.0779,-0.24662 -0.1174,-0.36964 0.31149,0.0691 0.62073,0.13724 0.93223,0.20664 -0.0873,0.0966 -0.17132,0.19258 -0.25968,0.2896 0.0291,0.0958 0.0577,0.19365 0.087,0.28971 0.0639,0.0482 0.22766,0.0613 0.31963,0.0799 0.0975,-0.10483 0.19431,-0.21065 0.29295,-0.31632 0.0379,0.0284 0.0852,0.22553 0.10053,0.27969 -0.19215,0.20795 -0.38384,0.41785 -0.57601,0.62583 0.0309,0.0963 0.0589,0.19054 0.0895,0.28647 0.063,0.0479 0.2256,0.0613 0.3163,0.0799 0.12109,-0.12986 0.24125,-0.26213 0.36293,-0.39294 7.6e-4,-7.5e-4 0.009,4.5e-4 0.01,0 0.0461,0.14434 0.0901,0.28839 0.13626,0.43289 h 0.59929 c -0.0638,-0.2021 -0.12654,-0.40668 -0.19029,-0.60937 0.17619,0.0349 0.35326,0.0714 0.52936,0.10581 0.0719,-0.075 0.14434,-0.15124 0.21634,-0.22649 -0.0279,-0.0981 -0.0587,-0.20032 -0.087,-0.29968 -0.0469,-0.0426 -0.15244,-0.0435 -0.22652,-0.0603 -0.20636,-0.0435 -0.41286,-0.0865 -0.61931,-0.12935 -0.0417,-0.0559 -0.0937,-0.21548 -0.0937,-0.28969 l 0.44615,0.0993 c 0.0721,-0.0772 0.14401,-0.1571 0.2163,-0.23307 -0.0299,-0.10228 -0.0605,-0.20148 -0.0896,-0.303 -0.1276,-0.0299 -0.25225,-0.0604 -0.37954,-0.0895 -7.5e-4,-7.5e-4 -7.5e-4,-0.002 -7.5e-4,-0.009 0.20947,-0.2311 0.41961,-0.46455 0.62931,-0.69582 0.002,-7.6e-4 0.01,-0.002 0.0117,-0.002 0.0379,0.12194 0.0759,0.24683 0.11281,0.3696 0.10505,0.0231 0.21055,0.0469 0.31631,0.07 0.0702,-0.0757 0.13838,-0.15338 0.2097,-0.22982 0.002,-0.11633 -0.0897,-0.32769 -0.12696,-0.43949 0.0948,0.012 0.18905,0.0327 0.28299,0.0498 0.0862,0.27636 0.16994,0.55261 0.25636,0.829 0.10382,0.0231 0.20615,0.0471 0.30959,0.07 0.072,-0.0749 0.1442,-0.15127 0.2164,-0.22632 -0.0507,-0.17441 -0.10297,-0.34862 -0.15274,-0.52269 7.5e-4,-7.6e-4 0.009,-0.002 0.01,-0.002 0.23949,0.0549 0.47954,0.10908 0.71913,0.16218 0.0773,-0.0826 0.15581,-0.16694 0.23307,-0.24975 -0.0318,-0.0997 -0.0648,-0.19969 -0.0965,-0.29965 -0.0417,-0.0312 -0.13611,-0.042 -0.19989,-0.0562 -0.18117,-0.0399 -0.36222,-0.077 -0.54272,-0.11738 0.11944,-0.13631 0.237,-0.27305 0.35634,-0.40955 -0.0319,-0.0978 -0.0613,-0.19827 -0.0938,-0.29633 -0.0141,-0.0284 -0.25879,-0.0691 -0.31631,-0.0799 -0.18286,0.20532 -0.36354,0.41097 -0.54606,0.61595 -0.0958,-0.0124 -0.1908,-0.0407 -0.28633,-0.0598 0.0356,-0.0808 0.20195,-0.2537 0.26972,-0.30958 0.002,-0.10963 -0.0699,-0.19972 -0.0826,-0.30296 -0.0638,-0.0481 -0.22772,-0.0613 -0.31966,-0.0799 -0.0861,0.0958 -0.17011,0.1908 -0.25631,0.28631 -7.6e-4,0 -7.6e-4,9e-5 -7.6e-4,0 -0.0968,-0.30419 -0.19576,-0.60831 -0.29298,-0.91228 0.12641,0.0276 0.25355,0.0552 0.37958,0.0826 0.0727,-0.079 0.1437,-0.16061 0.21632,-0.23964 -0.0319,-0.0976 -0.0648,-0.19435 -0.0965,-0.2931 -0.0269,-0.0379 -0.36662,-0.0968 -0.44621,-0.11279 0.0647,-0.0733 0.12852,-0.15031 0.19301,-0.2231 0.28054,0.0637 0.56177,0.12906 0.84233,0.19296 0.0721,-0.0773 0.14401,-0.15515 0.21638,-0.23308 -0.031,-0.10359 -0.0589,-0.20654 -0.0895,-0.3096 -0.17528,-0.0401 -0.35116,-0.0797 -0.52595,-0.11979 0.16809,-0.18893 0.33789,-0.37768 0.50597,-0.56605 -0.0321,-0.10517 -0.064,-0.21053 -0.0965,-0.31627 -0.10976,-0.0239 -0.22056,-0.0491 -0.32951,-0.073 -0.16793,0.18616 -0.33484,0.37277 -0.5028,0.55936 -7.8e-4,0 -7.8e-4,0 -7.8e-4,0 -0.0549,-0.16639 -0.10964,-0.33022 -0.16214,-0.4961 -0.0639,-0.0487 -0.22768,-0.064 -0.31964,-0.0826 -0.0727,0.079 -0.14593,0.15821 -0.21973,0.23643 0.0841,0.26023 0.16894,0.5225 0.25307,0.78241 -0.0638,0.0702 -0.12908,0.13903 -0.19302,0.20975 -7.7e-4,7.5e-4 -0.002,7.5e-4 -0.009,7.5e-4 -0.0417,-0.12733 -0.0856,-0.25576 -0.12707,-0.38291 -0.0141,-0.0283 -0.25538,-0.0679 -0.3129,-0.0799 -0.0709,0.0779 -0.14306,0.15644 -0.21329,0.2331 0.039,0.12533 0.0782,0.24812 0.11757,0.37286 -2.7e-4,7.5e-4 2e-4,0.002 0,0.002 -0.31325,-0.0692 -0.629,-0.13692 -0.94225,-0.20657 0.0854,-0.0944 0.17052,-0.1895 0.25634,-0.283 0.0231,-0.0269 -0.0693,-0.24398 -0.0771,-0.30299 -0.0638,-0.0482 -0.22736,-0.061 -0.31957,-0.0798 -0.10173,0.11066 -0.20173,0.21926 -0.30296,0.32966 -7.6e-4,7.6e-4 -0.009,7.6e-4 -0.01,7.6e-4 -0.0293,-0.0949 -0.057,-0.18947 -0.087,-0.28297 0.19358,-0.20779 0.38883,-0.41495 0.58272,-0.62267 -0.0293,-0.10315 -0.0612,-0.20665 -0.0895,-0.30958 -0.10523,-0.0231 -0.21059,-0.047 -0.31632,-0.07 -0.12115,0.12982 -0.24133,0.26221 -0.36289,0.39292 -0.0453,-0.0364 -0.0515,-0.14207 -0.07,-0.1967 -0.056,-0.17536 -0.11321,-0.35111 -0.16933,-0.5262 -0.10971,-0.0239 -0.21722,-0.049 -0.32628,-0.073 z m 1.11538,2.55038 c 0.33849,0.0763 0.67698,0.15064 1.01553,0.22651 -0.23331,0.25632 -0.46596,0.51272 -0.69919,0.76913 -0.009,0.009 -7.5e-4,0.002 -0.01,0.009 -0.0747,-0.24362 -0.14935,-0.48868 -0.22309,-0.7325 -0.0141,-0.065 -0.10303,-0.20842 -0.0799,-0.27304 z m -0.56264,0.19024 c 0.10257,0.33021 0.20463,0.66194 0.30629,0.99218 -0.32818,-0.0738 -0.65406,-0.14964 -0.98219,-0.22307 -0.009,-7.6e-4 -0.0123,-7.6e-4 -0.026,-7.6e-4 0.23447,-0.25431 0.46798,-0.51139 0.70247,-0.76577 z m 2.04088,0.39622 c 0.11113,0.34814 0.22227,0.69725 0.33307,1.04541 -0.35452,-0.0768 -0.71106,-0.15291 -1.06548,-0.22973 0.24357,-0.272 0.48863,-0.54388 0.73241,-0.8157 z m -2.90661,0.9356 c 0.35078,0.0772 0.70152,0.1524 1.05215,0.22971 -3.2e-4,7.6e-4 2.2e-4,0.002 0,0.002 -0.23814,0.2625 -0.47766,0.52319 -0.7158,0.78566 -0.002,7.6e-4 -0.01,0.002 -0.0119,0.002 -0.10549,-0.34365 -0.2135,-0.68506 -0.31963,-1.02886 z m 2.03772,0.4461 c 0.36221,0.0814 0.72633,0.16561 1.08871,0.24649 0.002,7.5e-4 0.01,7.5e-4 0.0141,7.5e-4 -0.25224,0.27903 -0.50656,0.56008 -0.75915,0.83905 -0.0588,-0.0478 -0.0692,-0.20696 -0.0937,-0.27969 -0.0861,-0.26925 -0.17013,-0.53992 -0.25635,-0.8091 z m -0.55938,0.18343 c 0.11374,0.35623 0.22866,0.71275 0.34293,1.06871 -2.8e-4,7.7e-4 3.5e-4,0.002 0,0.002 -0.36615,-0.0806 -0.73268,-0.16166 -1.0987,-0.24303 0.25209,-0.27736 0.50372,-0.55501 0.75577,-0.83236 z"
       style="fill:#ebcb8b;fill-opacity:1;fill-rule:evenodd;stroke:#2e75bc;stroke-width:0.0242711;stroke-miterlimit:4;stroke-dasharray:none;stroke-opacity:1" />
    <path
       inkscape:connector-curvature="0"
       id="path16507-1-3-3"
       d="m 438.95628,504.83197 c -0.071,0.079 -0.14256,0.15805 -0.2133,0.23647 -0.002,0.0727 0.18032,0.64668 0.21977,0.71584 -7.7e-4,0.002 -7.7e-4,0.009 -7.7e-4,0.01 -0.16083,0.009 -0.35923,-0.0647 -0.52946,-0.10342 -0.0711,0.0791 -0.14256,0.1581 -0.21323,0.23643 0.0319,0.0976 0.0647,0.19826 0.0964,0.29631 0.0269,0.0371 0.16762,0.0479 0.22315,0.0603 0.20508,0.0429 0.40798,0.087 0.61266,0.12932 0.0274,0.0897 0.055,0.17853 0.0826,0.26966 -1.9e-4,7.5e-4 2.8e-4,7.5e-4 0,7.5e-4 -0.14628,-0.029 -0.29237,-0.0577 -0.43953,-0.087 -0.071,0.0791 -0.14252,0.16033 -0.21325,0.23974 0.0329,0.10261 0.0638,0.2037 0.0965,0.30627 0.12682,0.0259 0.25315,0.05 0.37958,0.077 -0.21293,0.23753 -0.4263,0.4749 -0.63927,0.71251 -0.0303,-0.0231 -0.11859,-0.31806 -0.12218,-0.36961 -0.10382,-0.0231 -0.20613,-0.0431 -0.3096,-0.0662 -0.0721,0.0774 -0.14402,0.15241 -0.21639,0.22981 0.0382,0.13546 0.0748,0.27066 0.1128,0.40616 -0.0952,-0.0231 -0.19137,-0.0435 -0.28632,-0.066 -0.08,-0.26091 -0.15966,-0.5247 -0.23967,-0.78575 -0.10522,-0.0231 -0.21056,-0.0428 -0.31634,-0.0664 -0.071,0.0792 -0.1427,0.15806 -0.21325,0.23637 0.0522,0.16863 0.10435,0.33723 0.15741,0.50606 -7.6e-4,0.002 -7.6e-4,0.01 -7.6e-4,0.0119 -0.24356,-0.0539 -0.48576,-0.11034 -0.72906,-0.16218 -0.0763,0.0782 -0.15304,0.15874 -0.22985,0.23645 0.0319,0.10615 0.0648,0.21245 0.0963,0.31958 0.24333,0.0539 0.48561,0.11031 0.72908,0.16215 0.002,7.8e-4 0.009,7.8e-4 0.01,0.002 -0.12047,0.13484 -0.23908,0.26857 -0.35962,0.40291 0.0319,0.0976 0.0613,0.19828 0.0937,0.29627 0.0141,0.0284 0.25882,0.0691 0.31636,0.0799 0.18988,-0.21227 0.37983,-0.42359 0.56932,-0.63593 0.096,0.0125 0.19044,0.0321 0.28636,0.0498 7.6e-4,7.6e-4 7.6e-4,0.009 7.6e-4,0.01 -0.0995,0.11345 -0.19964,0.22894 -0.29961,0.3429 0.0291,0.0959 0.0577,0.19068 0.087,0.28628 0.0639,0.0486 0.22761,0.0613 0.31957,0.0799 0.0861,-0.0958 0.17023,-0.19081 0.25638,-0.2863 7.7e-4,0 7.7e-4,-8e-5 7.7e-4,0 0.029,0.0885 0.0578,0.17728 0.087,0.26631 0.0679,0.21706 0.13755,0.43542 0.20653,0.65263 -0.12351,-0.0291 -0.24904,-0.0577 -0.37288,-0.087 -0.0747,0.08 -0.14869,0.15968 -0.22307,0.23972 0.0329,0.10262 0.0638,0.20429 0.0964,0.30639 0.13014,0.0291 0.26176,0.0577 0.39293,0.087 -0.0643,0.0737 -0.12851,0.14547 -0.193,0.21975 -0.26335,-0.0602 -0.52559,-0.11981 -0.78902,-0.17891 -0.0721,0.0774 -0.14402,0.15661 -0.21637,0.23306 0.0291,0.0972 0.0579,0.19514 0.087,0.29297 0.0727,0.0671 0.39825,0.10986 0.52944,0.13627 7.6e-4,7.6e-4 7.6e-4,0.009 7.6e-4,0.01 -0.16789,0.18616 -0.33497,0.37254 -0.50275,0.55934 0.0311,0.10253 0.0621,0.20448 0.0937,0.30627 0.0648,0.049 0.22957,0.0611 0.32301,0.0799 0.1679,-0.18619 0.33815,-0.37255 0.50603,-0.55938 7.8e-4,-7.6e-4 0.002,-7.6e-4 0.009,-7.6e-4 0.0542,0.16756 0.10987,0.33532 0.16214,0.50275 0.063,0.0479 0.22218,0.0613 0.31296,0.0799 0.0709,-0.0779 0.14306,-0.1545 0.2133,-0.2331 0.0124,-0.048 -0.041,-0.15061 -0.0567,-0.19984 -0.0668,-0.20636 -0.13592,-0.41308 -0.2028,-0.61929 0.0622,-0.072 0.12483,-0.14421 0.186,-0.21639 0.002,-7.5e-4 0.01,-0.002 0.0141,-0.002 0.0461,0.14161 0.0902,0.28237 0.13623,0.42298 0.0141,0.0291 0.26158,0.0679 0.31968,0.0799 0.0711,-0.0791 0.14268,-0.15808 0.21328,-0.23645 -0.0391,-0.12215 -0.0779,-0.24662 -0.1174,-0.36964 0.31149,0.0691 0.62073,0.13724 0.93223,0.20664 -0.0873,0.0966 -0.17132,0.19258 -0.25968,0.2896 0.0291,0.0958 0.0577,0.19365 0.087,0.28971 0.0639,0.0482 0.22766,0.0613 0.31963,0.0799 0.0975,-0.10483 0.19431,-0.21065 0.29295,-0.31632 0.0379,0.0284 0.0852,0.22553 0.10053,0.27969 -0.19215,0.20795 -0.38384,0.41785 -0.57601,0.62583 0.0309,0.0963 0.0589,0.19054 0.0895,0.28647 0.063,0.0479 0.2256,0.0613 0.3163,0.0799 0.12109,-0.12986 0.24125,-0.26213 0.36293,-0.39294 7.6e-4,-7.5e-4 0.009,4.5e-4 0.01,0 0.0461,0.14434 0.0901,0.28839 0.13626,0.43289 h 0.59929 c -0.0638,-0.2021 -0.12654,-0.40668 -0.19029,-0.60937 0.17619,0.0349 0.35326,0.0714 0.52936,0.10581 0.0719,-0.075 0.14434,-0.15124 0.21634,-0.22649 -0.0279,-0.0981 -0.0587,-0.20032 -0.087,-0.29968 -0.0469,-0.0426 -0.15244,-0.0435 -0.22652,-0.0603 -0.20636,-0.0435 -0.41286,-0.0865 -0.61931,-0.12935 -0.0417,-0.0559 -0.0937,-0.21548 -0.0937,-0.28969 l 0.44615,0.0993 c 0.0721,-0.0772 0.14401,-0.1571 0.2163,-0.23307 -0.0299,-0.10228 -0.0605,-0.20148 -0.0896,-0.303 -0.1276,-0.0299 -0.25225,-0.0604 -0.37954,-0.0895 -7.5e-4,-7.5e-4 -7.5e-4,-0.002 -7.5e-4,-0.009 0.20947,-0.2311 0.41961,-0.46455 0.62931,-0.69582 0.002,-7.6e-4 0.01,-0.002 0.0117,-0.002 0.0379,0.12194 0.0759,0.24683 0.11281,0.3696 0.10505,0.0231 0.21055,0.0469 0.31631,0.07 0.0702,-0.0757 0.13838,-0.15338 0.2097,-0.22982 0.002,-0.11633 -0.0897,-0.32769 -0.12696,-0.43949 0.0948,0.012 0.18905,0.0327 0.28299,0.0498 0.0862,0.27636 0.16994,0.55261 0.25636,0.829 0.10382,0.0231 0.20615,0.0471 0.30959,0.07 0.072,-0.0749 0.1442,-0.15127 0.2164,-0.22632 -0.0507,-0.17441 -0.10297,-0.34862 -0.15274,-0.52269 7.5e-4,-7.6e-4 0.009,-0.002 0.01,-0.002 0.23949,0.0549 0.47954,0.10908 0.71913,0.16218 0.0773,-0.0826 0.15581,-0.16694 0.23307,-0.24975 -0.0318,-0.0997 -0.0648,-0.19969 -0.0965,-0.29965 -0.0417,-0.0312 -0.13611,-0.042 -0.19989,-0.0562 -0.18117,-0.0399 -0.36222,-0.077 -0.54272,-0.11738 0.11944,-0.13631 0.237,-0.27305 0.35634,-0.40955 -0.0319,-0.0978 -0.0613,-0.19827 -0.0938,-0.29633 -0.0141,-0.0284 -0.25879,-0.0691 -0.31631,-0.0799 -0.18286,0.20532 -0.36354,0.41097 -0.54606,0.61595 -0.0958,-0.0124 -0.1908,-0.0407 -0.28633,-0.0598 0.0356,-0.0808 0.20195,-0.2537 0.26972,-0.30958 0.002,-0.10963 -0.0699,-0.19972 -0.0826,-0.30296 -0.0638,-0.0481 -0.22772,-0.0613 -0.31966,-0.0799 -0.0861,0.0958 -0.17011,0.1908 -0.25631,0.28631 -7.6e-4,0 -7.6e-4,9e-5 -7.6e-4,0 -0.0968,-0.30419 -0.19576,-0.60831 -0.29298,-0.91228 0.12641,0.0276 0.25355,0.0552 0.37958,0.0826 0.0727,-0.079 0.1437,-0.16061 0.21632,-0.23964 -0.0319,-0.0976 -0.0648,-0.19435 -0.0965,-0.2931 -0.0269,-0.0379 -0.36662,-0.0968 -0.44621,-0.11279 0.0647,-0.0733 0.12852,-0.15031 0.19301,-0.2231 0.28054,0.0637 0.56177,0.12906 0.84233,0.19296 0.0721,-0.0773 0.14401,-0.15515 0.21638,-0.23308 -0.031,-0.10359 -0.0589,-0.20654 -0.0895,-0.3096 -0.17528,-0.0401 -0.35116,-0.0797 -0.52595,-0.11979 0.16809,-0.18893 0.33789,-0.37768 0.50597,-0.56605 -0.0321,-0.10517 -0.064,-0.21053 -0.0965,-0.31627 -0.10976,-0.0239 -0.22056,-0.0491 -0.32951,-0.073 -0.16793,0.18616 -0.33484,0.37277 -0.5028,0.55936 -7.8e-4,0 -7.8e-4,0 -7.8e-4,0 -0.0549,-0.16639 -0.10964,-0.33022 -0.16214,-0.4961 -0.0639,-0.0487 -0.22768,-0.064 -0.31964,-0.0826 -0.0727,0.079 -0.14593,0.15821 -0.21973,0.23643 0.0841,0.26023 0.16894,0.5225 0.25307,0.78241 -0.0638,0.0702 -0.12908,0.13903 -0.19302,0.20975 -7.7e-4,7.5e-4 -0.002,7.5e-4 -0.009,7.5e-4 -0.0417,-0.12733 -0.0856,-0.25576 -0.12707,-0.38291 -0.0141,-0.0283 -0.25538,-0.0679 -0.3129,-0.0799 -0.0709,0.0779 -0.14306,0.15644 -0.21329,0.2331 0.039,0.12533 0.0782,0.24812 0.11757,0.37286 -2.7e-4,7.5e-4 2e-4,0.002 0,0.002 -0.31325,-0.0692 -0.629,-0.13692 -0.94225,-0.20657 0.0854,-0.0944 0.17052,-0.1895 0.25634,-0.283 0.0231,-0.0269 -0.0693,-0.24398 -0.0771,-0.30299 -0.0638,-0.0482 -0.22736,-0.061 -0.31957,-0.0798 -0.10173,0.11066 -0.20173,0.21926 -0.30296,0.32966 -7.6e-4,7.6e-4 -0.009,7.6e-4 -0.01,7.6e-4 -0.0293,-0.0949 -0.057,-0.18947 -0.087,-0.28297 0.19358,-0.20779 0.38883,-0.41495 0.58272,-0.62267 -0.0293,-0.10315 -0.0612,-0.20665 -0.0895,-0.30958 -0.10523,-0.0231 -0.21059,-0.047 -0.31632,-0.07 -0.12115,0.12982 -0.24133,0.26221 -0.36289,0.39292 -0.0453,-0.0364 -0.0515,-0.14207 -0.07,-0.1967 -0.056,-0.17536 -0.11321,-0.35111 -0.16933,-0.5262 -0.10971,-0.0239 -0.21722,-0.049 -0.32628,-0.073 z m 1.11538,2.55038 c 0.33849,0.0763 0.67698,0.15064 1.01553,0.22651 -0.23331,0.25632 -0.46596,0.51272 -0.69919,0.76913 -0.009,0.009 -7.5e-4,0.002 -0.01,0.009 -0.0747,-0.24362 -0.14935,-0.48868 -0.22309,-0.7325 -0.0141,-0.065 -0.10303,-0.20842 -0.0799,-0.27304 z m -0.56264,0.19024 c 0.10257,0.33021 0.20463,0.66194 0.30629,0.99218 -0.32818,-0.0738 -0.65406,-0.14964 -0.98219,-0.22307 -0.009,-7.6e-4 -0.0123,-7.6e-4 -0.026,-7.6e-4 0.23447,-0.25431 0.46798,-0.51139 0.70247,-0.76577 z m 2.04088,0.39622 c 0.11113,0.34814 0.22227,0.69725 0.33307,1.04541 -0.35452,-0.0768 -0.71106,-0.15291 -1.06548,-0.22973 0.24357,-0.272 0.48863,-0.54388 0.73241,-0.8157 z m -2.90661,0.9356 c 0.35078,0.0772 0.70152,0.1524 1.05215,0.22971 -3.2e-4,7.6e-4 2.2e-4,0.002 0,0.002 -0.23814,0.2625 -0.47766,0.52319 -0.7158,0.78566 -0.002,7.6e-4 -0.01,0.002 -0.0119,0.002 -0.10549,-0.34365 -0.2135,-0.68506 -0.31963,-1.02886 z m 2.03772,0.4461 c 0.36221,0.0814 0.72633,0.16561 1.08871,0.24649 0.002,7.5e-4 0.01,7.5e-4 0.0141,7.5e-4 -0.25224,0.27903 -0.50656,0.56008 -0.75915,0.83905 -0.0588,-0.0478 -0.0692,-0.20696 -0.0937,-0.27969 -0.0861,-0.26925 -0.17013,-0.53992 -0.25635,-0.8091 z m -0.55938,0.18343 c 0.11374,0.35623 0.22866,0.71275 0.34293,1.06871 -2.8e-4,7.7e-4 3.5e-4,0.002 0,0.002 -0.36615,-0.0806 -0.73268,-0.16166 -1.0987,-0.24303 0.25209,-0.27736 0.50372,-0.55501 0.75577,-0.83236 z"
       style="fill:#ebcb8b;fill-opacity:1;fill-rule:evenodd;stroke:#2e75bc;stroke-width:0.0242711;stroke-miterlimit:4;stroke-dasharray:none;stroke-opacity:1" />
  </g>
</svg>
