<?xml version="1.0" encoding="UTF-8" standalone="no"?>
<svg
   width="48"
   height="48"
   version="1.1"
   id="svg22"
   sodipodi:docname="bug.svg"
   inkscape:version="1.3.2 (091e20ef0f, 2023-11-25)"
   xmlns:inkscape="http://www.inkscape.org/namespaces/inkscape"
   xmlns:sodipodi="http://sodipodi.sourceforge.net/DTD/sodipodi-0.dtd"
   xmlns:xlink="http://www.w3.org/1999/xlink"
   xmlns="http://www.w3.org/2000/svg"
   xmlns:svg="http://www.w3.org/2000/svg">
  <sodipodi:namedview
     id="namedview22"
     pagecolor="#ffffff"
     bordercolor="#000000"
     borderopacity="0.25"
     inkscape:showpageshadow="2"
     inkscape:pageopacity="0.0"
     inkscape:pagecheckerboard="0"
     inkscape:deskcolor="#d1d1d1"
     inkscape:zoom="4.2371164"
     inkscape:cx="8.2603348"
     inkscape:cy="11.210454"
     inkscape:window-width="1920"
     inkscape:window-height="996"
     inkscape:window-x="0"
     inkscape:window-y="0"
     inkscape:window-maximized="1"
     inkscape:current-layer="svg22" />
  <defs
     id="defs22">
    <linearGradient
       id="linearGradient22"
       inkscape:collect="always">
      <stop
         style="stop-color:#e6e6e6;stop-opacity:1"
         offset="0"
         id="stop23" />
      <stop
         style="stop-color:#f2f2f2;stop-opacity:1"
         offset="1"
         id="stop24" />
    </linearGradient>
    <style
       id="current-color-scheme"
       type="text/css">
   .ColorScheme-Text { color:#d5c289; } .ColorScheme-Highlight { color:#5294e2; }
  </style>
    <linearGradient
       id="arrongin"
       x1="0"
       x2="0"
       y1="0"
       y2="1">
      <stop
         offset="0%"
         style="stop-color:#dd9b44; stop-opacity:1"
         id="stop1" />
      <stop
         offset="100%"
         style="stop-color:#ad6c16; stop-opacity:1"
         id="stop2" />
    </linearGradient>
    <linearGradient
       id="aurora"
       x1="0"
       x2="0"
       y1="0"
       y2="1">
      <stop
         offset="0%"
         style="stop-color:#09D4DF; stop-opacity:1"
         id="stop3" />
      <stop
         offset="100%"
         style="stop-color:#9269F4; stop-opacity:1"
         id="stop4" />
    </linearGradient>
    <linearGradient
       id="fitdance"
       x1="0"
       x2="0"
       y1="0"
       y2="1">
      <stop
         offset="0%"
         style="stop-color:#1AD6AB; stop-opacity:1"
         id="stop5" />
      <stop
         offset="100%"
         style="stop-color:#329DB6; stop-opacity:1"
         id="stop6" />
    </linearGradient>
    <linearGradient
       id="oomox"
       x1="832.37585"
       x2="832.37585"
       y1="465.3418"
       y2="479.35617"
       gradientTransform="matrix(1.0703309,0,0,1.0702868,-58.417093,-33.549198)"
       gradientUnits="userSpaceOnUse">
      <stop
         offset="0%"
         style="stop-color:#303b3d; stop-opacity:1"
         id="stop7" />
      <stop
         offset="100%"
         style="stop-color:#bc985d; stop-opacity:1"
         id="stop8" />
    </linearGradient>
    <linearGradient
       id="rainblue"
       x1="0"
       x2="0"
       y1="0"
       y2="1">
      <stop
         offset="0%"
         style="stop-color:#00F260; stop-opacity:1"
         id="stop9" />
      <stop
         offset="100%"
         style="stop-color:#0575E6; stop-opacity:1"
         id="stop10" />
    </linearGradient>
    <linearGradient
       id="sunrise"
       x1="0"
       x2="0"
       y1="0"
       y2="1">
      <stop
         offset="0%"
         style="stop-color: #FF8501; stop-opacity:1"
         id="stop11" />
      <stop
         offset="100%"
         style="stop-color: #FFCB01; stop-opacity:1"
         id="stop12" />
    </linearGradient>
    <linearGradient
       id="telinkrin"
       x1="0"
       x2="0"
       y1="0"
       y2="1">
      <stop
         offset="0%"
         style="stop-color: #b2ced6; stop-opacity:1"
         id="stop13" />
      <stop
         offset="100%"
         style="stop-color: #6da5b7; stop-opacity:1"
         id="stop14" />
    </linearGradient>
    <linearGradient
       id="60spsycho"
       x1="0"
       x2="0"
       y1="0"
       y2="1">
      <stop
         offset="0%"
         style="stop-color: #df5940; stop-opacity:1"
         id="stop15" />
      <stop
         offset="25%"
         style="stop-color: #d8d15f; stop-opacity:1"
         id="stop16" />
      <stop
         offset="50%"
         style="stop-color: #e9882a; stop-opacity:1"
         id="stop17" />
      <stop
         offset="100%"
         style="stop-color: #279362; stop-opacity:1"
         id="stop18" />
    </linearGradient>
    <linearGradient
       id="90ssummer"
       x1="0"
       x2="0"
       y1="0"
       y2="1">
      <stop
         offset="0%"
         style="stop-color: #f618c7; stop-opacity:1"
         id="stop19" />
      <stop
         offset="20%"
         style="stop-color: #94ffab; stop-opacity:1"
         id="stop20" />
      <stop
         offset="50%"
         style="stop-color: #fbfd54; stop-opacity:1"
         id="stop21" />
      <stop
         offset="100%"
         style="stop-color: #0f83ae; stop-opacity:1"
         id="stop22" />
    </linearGradient>
    <linearGradient
       id="linearGradient7013-3"
       x1="34.102001"
       x2="34.102001"
       y1="25.742001"
       y2="61.487"
       gradientUnits="userSpaceOnUse"
       gradientTransform="matrix(0.62221705,0,0,0.62177119,11.870328,-56.871672)">
      <stop
         stop-color="#fff"
         offset="0"
         id="stop3-6" />
      <stop
         stop-color="#ffcdd6"
         offset="1"
         id="stop4-7" />
    </linearGradient>
    <linearGradient
       inkscape:collect="always"
       xlink:href="#linearGradient22"
       id="linearGradient24-9"
       x1="832.82452"
       y1="479.16879"
       x2="842.62079"
       y2="469.91965"
       gradientUnits="userSpaceOnUse"
       gradientTransform="matrix(1.7333324,0,0,1.7333324,-1431.9992,-794.1329)" />
  </defs>
  <circle
     cx="24"
     cy="24"
     r="21"
     fill="#ae1b29"
     style="stroke-width:0.77776;paint-order:stroke fill markers"
     id="circle2-0-5" />
  <circle
     cx="24"
     cy="24"
     r="18.66667"
     fill="#ffffff"
     opacity="0.15"
     style="stroke-width:0.77776;paint-order:stroke fill markers"
     id="circle4-6-3" />
  <path
     class="ColorScheme-Text"
     d="m 16.585184,11 a 0.92693817,0.92826323 0 0 0 -0.926969,0.928286 0.92693817,0.92826323 0 0 0 0.926969,0.928303 v 0.01907 a 3.4964107,4.0230931 0 0 1 2.743709,2.060724 7.4155051,9.2826323 0 0 0 -2.354368,4.214321 11.178875,9.2826323 0 0 0 0.0364,0.01907 9.9441928,9.9584082 0 0 0 -5.09825,5.031206 c -2.224559,4.901222 -0.240864,10.582219 4.412336,12.717217 A 0.92508427,0.92640668 0 0 0 17.54857,36.45408 l 1.649925,-3.638802 a 7.4155051,9.7467642 0 0 0 4.801486,2.320654 7.4155051,9.7467642 0 0 0 4.783044,-2.320654 l 1.668524,3.638802 c 0.203857,0.464117 0.760014,0.668338 1.223559,0.445553 4.6532,-2.116434 6.636826,-7.797431 4.412163,-12.7172 a 9.9460461,9.9602641 0 0 0 -5.098129,-5.012659 11.178875,9.2826323 0 0 0 0.01907,-0.01907 7.4155051,9.2826323 0 0 0 -2.354455,-4.214321 3.4964107,4.0230931 0 0 1 2.762308,-2.060724 v -0.01907 A 0.92693817,0.92826323 0 0 0 32.342996,11.928286 0.92693817,0.92826323 0 0 0 31.416061,11 0.92693817,0.92826323 0 0 0 31.100872,11.055466 5.3502868,5.8796195 0 0 0 27.189244,13.766017 7.4155051,9.2826323 0 0 0 24.000501,12.856433 7.4155051,9.2826323 0 0 0 20.81188,13.784564 5.3502868,5.8796195 0 0 0 16.900165,11.055466 0.92693817,0.92826323 0 0 0 16.585288,11 Z m 2.873484,9.39402 a 11.178875,9.2826323 0 0 0 3.021787,0.723996 l -4.504896,9.932428 -1.686983,3.694546 c -3.114504,-1.967922 -4.338063,-6.12655 -2.688138,-9.783916 a 7.962399,7.9737813 0 0 1 3.98578,-3.99157 c 0.14872,-0.07453 0.315207,-0.13 0.482092,-0.185588 a 7.693587,7.704585 0 0 1 1.260583,-0.371349 z m 9.084014,0 0.09273,0.01907 c 0.500534,0.0936 1.001121,0.241384 1.483108,0.427006 0.09325,0.03657 0.166054,0.07453 0.259532,0.110933 a 7.9642526,7.9756375 0 0 1 4.022926,4.0101 c 1.649942,3.657366 0.426383,7.815994 -2.688138,9.783916 l -1.687001,-3.713093 -4.504913,-9.913881 a 11.178875,9.2826323 0 0 0 3.021822,-0.723996 z"
     id="path22-9"
     style="color:#d5c289;fill:url(#linearGradient24-9);stroke-width:1.73333" />
</svg>
