<?xml version="1.0" encoding="UTF-8" standalone="no"?>
<svg
   width="32"
   height="32"
   viewBox="0 0 32 32"
   fill="none"
   version="1.1"
   id="svg1"
   sodipodi:docname="kate-symbolic.svg"
   inkscape:version="1.3.2 (091e20ef0f, 2023-11-25)"
   xmlns:inkscape="http://www.inkscape.org/namespaces/inkscape"
   xmlns:sodipodi="http://sodipodi.sourceforge.net/DTD/sodipodi-0.dtd"
   xmlns="http://www.w3.org/2000/svg"
   xmlns:svg="http://www.w3.org/2000/svg">
  <defs
     id="defs1" />
  <sodipodi:namedview
     id="namedview1"
     pagecolor="#ffffff"
     bordercolor="#999999"
     borderopacity="1"
     inkscape:showpageshadow="2"
     inkscape:pageopacity="0"
     inkscape:pagecheckerboard="0"
     inkscape:deskcolor="#d1d1d1"
     inkscape:zoom="8.41899"
     inkscape:cx="9.8586648"
     inkscape:cy="17.163579"
     inkscape:window-width="1920"
     inkscape:window-height="994"
     inkscape:window-x="0"
     inkscape:window-y="0"
     inkscape:window-maximized="1"
     inkscape:current-layer="svg1"
     showgrid="true">
    <inkscape:grid
       id="grid1"
       units="px"
       originx="0"
       originy="0"
       spacingx="1"
       spacingy="1"
       empcolor="#0099e5"
       empopacity="0.30196078"
       color="#0099e5"
       opacity="0.14901961"
       empspacing="5"
       dotted="false"
       gridanglex="30"
       gridanglez="30"
       visible="true" />
  </sodipodi:namedview>
  <style
     type="text/css"
     id="current-color-scheme">.ColorScheme-Text { color: #fcfcfc; } </style>
  <g
     id="kate-6"
     style="fill:#232627;fill-opacity:1">
    <rect
       style="opacity:0.00100002;fill:#232627;fill-opacity:1"
       width="32"
       height="32"
       x="0"
       y="0"
       id="rect7-2" />
    <path
       style="fill:#232627;fill-opacity:1;stroke:none;stroke-width:0.056572;stroke-linecap:butt;stroke-linejoin:miter;stroke-miterlimit:4;stroke-dasharray:none;stroke-opacity:1"
       d="M 6.5292477,12.006943 C 5.8451424,9.735831 1.9791778,10.286917 1.332961,10.237614 2.0582632,9.877578 2.7137195,9.580804 4.2089577,8.4976442 7.0894339,6.411008 10.139091,6.8660698 11.666279,7.6947284 7.4911743,7.8534407 8.2865632,10.128049 8.9015131,11.326548 8.1194762,11.553706 6.8849696,11.896616 6.5292477,12.006943 Z"
       id="path905-3"
       inkscape:connector-curvature="0" />
    <path
       sodipodi:nodetypes="cssscccccsssc"
       inkscape:connector-curvature="0"
       id="path907-6"
       d="m 16.835138,8.8817819 c -1.503453,1.9858921 -4.00311,4.6689651 -6.738849,5.0223841 -2.7357342,0.353438 -5.3438088,-0.03807 -5.9479464,1.999335 -0.5563532,1.876304 1.4004037,3.628124 3.4298829,3.205909 2.1681369,-0.451056 1.6998932,-2.908464 0.5140083,-4.581907 0.9007911,-0.05169 0.7332379,-0.03824 2.2607742,-0.115274 2.276883,1.940794 3.03157,2.494135 7.009425,5.325734 C 14.297023,19.416905 13.181352,19.12214 10.982744,17.807031 11.5523,19.236663 12.769657,22.48137 13.03335,24.999 11.765283,23.176865 11.284554,22.507237 9.3193387,21.19269 6.8020324,19.508834 4.7633122,19.451826 3.5833214,16.971007 2.4058861,14.495536 3.9643805,12.712371 6.7531909,11.940134 10.738608,10.836546 14.172565,9.790244 16.835138,8.8817819 Z"
       style="fill:#232627;fill-opacity:1;stroke:none;stroke-width:0.056572;stroke-linecap:butt;stroke-linejoin:miter;stroke-miterlimit:4;stroke-dasharray:none;stroke-opacity:1" />
    <path
       sodipodi:nodetypes="cccc"
       inkscape:connector-curvature="0"
       id="path909-7"
       d="m 8.0922338,14.527503 c 0.9007911,-0.05169 0.7332379,-0.03824 2.2607742,-0.115274 2.276883,1.940794 3.03157,2.494135 7.009425,5.325734 C 13.364154,19.451942 10.338955,18.272741 8.0922338,14.5275 Z"
       style="fill:#232627;fill-opacity:1;stroke:none;stroke-width:0.056572;stroke-linecap:butt;stroke-linejoin:miter;stroke-miterlimit:4;stroke-dasharray:none;stroke-opacity:1" />
    <path
       style="fill:#232627;fill-opacity:1;stroke:none;stroke-width:0.056572;stroke-linecap:butt;stroke-linejoin:miter;stroke-miterlimit:4;stroke-dasharray:none;stroke-opacity:1"
       d="m 16.835138,8.8817819 c -1.503453,1.9858921 -4.00311,4.6689651 -6.738849,5.0223841 -2.7357342,0.353438 -5.3438088,-0.03807 -5.9479464,1.999335 -0.5563532,1.876304 1.4004037,3.628124 3.4298829,3.205909 2.1681369,-0.451056 1.6998932,-2.908464 0.5140083,-4.581907 0.9007911,-0.05169 0.7332379,-0.03824 2.2607742,-0.115274 2.276883,1.940794 3.03157,2.494135 7.009425,5.325734 C 14.297023,19.416905 13.181352,19.12214 10.982744,17.807031 11.5523,19.236663 12.769657,22.48137 13.03335,24.999 11.765283,23.176865 11.284554,22.507237 9.3193387,21.19269 6.8020324,19.508834 4.7633122,19.451826 3.5833214,16.971007 2.4058861,14.495536 3.9643805,12.712371 6.7531909,11.940134 10.738608,10.836546 14.172565,9.790244 16.835138,8.8817819 Z"
       id="path911-53"
       inkscape:connector-curvature="0"
       sodipodi:nodetypes="cssscccccsssc" />
    <path
       style="fill:#232627;fill-opacity:1;stroke:none;stroke-width:0.056572;stroke-linecap:butt;stroke-linejoin:miter;stroke-miterlimit:4;stroke-dasharray:none;stroke-opacity:1"
       d="m 8.0922338,14.527503 c 0.9007911,-0.05169 0.7332379,-0.03824 2.2607742,-0.115274 2.276883,1.940794 3.03157,2.494135 7.009425,5.325734 C 13.364154,19.451942 10.338955,18.272741 8.0922338,14.5275 Z"
       id="path913-5"
       inkscape:connector-curvature="0"
       sodipodi:nodetypes="cccc" />
    <path
       sodipodi:nodetypes="ccccc"
       inkscape:connector-curvature="0"
       id="path915-6"
       d="M 1.332961,10.237614 C 2.0582632,9.877578 2.7137195,9.580804 4.2089577,8.4976442 7.0894339,6.411008 10.139091,6.8660698 11.666279,7.6947284 7.4911743,7.8534407 8.0291226,8.6853271 8.0137164,9.3374736 5.2397683,8.7527583 4.4298283,9.548319 1.332961,10.237614 Z"
       style="fill:#232627;fill-opacity:1;stroke:none;stroke-width:0.056572;stroke-linecap:butt;stroke-linejoin:miter;stroke-miterlimit:4;stroke-dasharray:none;stroke-opacity:1" />
    <path
       inkscape:connector-curvature="0"
       id="path917-2"
       d="M 11.666279,7.6947284 C 7.4911743,7.8534407 8.2865632,10.128049 8.9015131,11.326548 8.414307,11.46806 7.886242,11.629291 7.2349383,11.801649 4.6070024,7.1191237 9.5214266,6.5099579 11.666279,7.6947284 Z"
       style="fill:#232627;fill-opacity:1;stroke:none;stroke-width:0.056572;stroke-linecap:butt;stroke-linejoin:miter;stroke-miterlimit:4;stroke-dasharray:none;stroke-opacity:1"
       sodipodi:nodetypes="cccc" />
    <path
       sodipodi:nodetypes="cscc"
       style="fill:#232627;fill-opacity:1;stroke:none;stroke-width:0.056572;stroke-linecap:butt;stroke-linejoin:miter;stroke-miterlimit:4;stroke-dasharray:none;stroke-opacity:1"
       d="M 4.3351275,18.13754 C 2.2920563,15.506832 2.6692878,13.095564 6.669911,11.842748 10.61787,10.606414 14.172565,9.790244 16.835138,8.8817819 9.649845,11.61954 0.6524514,13.448894 4.3351275,18.13754 Z"
       id="path919-9"
       inkscape:connector-curvature="0" />
    <path
       d="m 14.746293,5 h 15.298414 a 0.54637181,0.50000001 0 0 0 0,-1 H 14.746293 a 0.54637181,0.50000001 0 0 0 0,1 z"
       id="path4"
       style="fill:#232627;fill-opacity:1;stroke-width:0.261338" />
    <path
       d="M 29.621212,10 H 17.742424 c -0.699036,0 -0.639647,1 0,1 h 11.878788 c 0.728731,0 0.758426,-1 0,-1 z"
       id="path6"
       style="fill:#232627;fill-opacity:1;stroke-width:0.348154"
       sodipodi:nodetypes="sssss" />
    <path
       d="M 29.621212,16 H 17.742424 c -0.520865,0 -0.55056,1 0,1 h 11.878788 c 0.609949,0 0.550559,-1 0,-1 z"
       id="path8"
       style="fill:#232627;fill-opacity:1;stroke-width:0.348154"
       sodipodi:nodetypes="sssss" />
    <path
       d="M 29.621212,22 H 17.742424 c -0.520865,0 -0.580254,1 0,1 h 11.878788 c 0.580254,0 0.609949,-1 0,-1 z"
       id="path10"
       style="fill:#232627;fill-opacity:1;stroke-width:0.348154"
       sodipodi:nodetypes="sssss" />
    <path
       d="M 29.621212,26 H 2.469697 a 0.969697,1 0 0 0 0,2 h 27.151515 a 0.969697,1 0 0 0 0,-2 z"
       id="path12"
       style="fill:#232627;fill-opacity:1;stroke-width:0.492365" />
  </g>
</svg>
