<?xml version="1.0" encoding="UTF-8" standalone="no"?>
<svg
   width="22"
   height="22"
   viewBox="0 0 22 22"
   fill="none"
   version="1.1"
   id="svg1"
   sodipodi:docname="kate-symbolic.svg"
   inkscape:version="1.3.2 (091e20ef0f, 2023-11-25)"
   xmlns:inkscape="http://www.inkscape.org/namespaces/inkscape"
   xmlns:sodipodi="http://sodipodi.sourceforge.net/DTD/sodipodi-0.dtd"
   xmlns="http://www.w3.org/2000/svg"
   xmlns:svg="http://www.w3.org/2000/svg">
  <defs
     id="defs1" />
  <sodipodi:namedview
     id="namedview1"
     pagecolor="#ffffff"
     bordercolor="#999999"
     borderopacity="1"
     inkscape:showpageshadow="2"
     inkscape:pageopacity="0"
     inkscape:pagecheckerboard="0"
     inkscape:deskcolor="#d1d1d1"
     inkscape:zoom="16.83798"
     inkscape:cx="10.808898"
     inkscape:cy="10.571339"
     inkscape:window-width="1920"
     inkscape:window-height="994"
     inkscape:window-x="0"
     inkscape:window-y="0"
     inkscape:window-maximized="1"
     inkscape:current-layer="svg1" />
  <style
     type="text/css"
     id="current-color-scheme">.ColorScheme-Text { color: #fcfcfc; } </style>
  <g
     id="22-22-kate"
     style="fill:#232627;fill-opacity:1">
    <rect
       style="opacity:0.00100002;fill:#232627;fill-opacity:1"
       width="22"
       height="22"
       x="0"
       y="0"
       id="rect2" />
    <path
       style="fill:#232627;fill-opacity:1;stroke:none;stroke-width:0.038418;stroke-linecap:butt;stroke-linejoin:miter;stroke-miterlimit:4;stroke-dasharray:none;stroke-opacity:1"
       d="M 4.528797,8.437512 C 4.064221,6.895201 1.438846,7.269443 1,7.235962 1.492552,6.991461 1.937672,6.789922 2.953089,6.054349 4.909219,4.637315 6.98024,4.946347 8.017353,5.509089 5.18204,5.616871 5.722189,7.161556 6.139801,7.975456 5.60872,8.129719 4.770368,8.362589 4.528797,8.437512 Z"
       id="path905-3-3"
       inkscape:connector-curvature="0" />
    <path
       sodipodi:nodetypes="cssscccccsssc"
       inkscape:connector-curvature="0"
       id="path907-6-6"
       d="m 11.527523,6.315217 c -1.020994,1.348618 -2.71851,3.170692 -4.57635,3.410699 -1.857836,0.24002 -3.628979,-0.02585 -4.039248,1.357748 -0.37782,1.274197 0.951013,2.463858 2.329232,2.177131 1.472381,-0.306311 1.154397,-1.975136 0.349063,-3.111571 0.611727,-0.0351 0.497942,-0.02597 1.535291,-0.07828 1.546231,1.317993 2.058738,1.693767 4.760098,3.616705 C 9.80389,13.469618 9.046239,13.269443 7.553165,12.376353 7.93995,13.347216 8.766657,15.550695 8.94573,17.260417 8.084587,16.023006 7.758124,15.568262 6.423547,14.675553 4.714044,13.532047 3.32955,13.493333 2.528219,11.80861 1.728623,10.127518 2.786996,8.916571 4.680876,8.392145 7.387372,7.642699 9.719371,6.932156 11.527523,6.31522 Z"
       style="fill:#232627;fill-opacity:1;stroke:none;stroke-width:0.038418;stroke-linecap:butt;stroke-linejoin:miter;stroke-miterlimit:4;stroke-dasharray:none;stroke-opacity:1" />
    <path
       sodipodi:nodetypes="cccc"
       inkscape:connector-curvature="0"
       id="path909-7-7"
       d="m 5.59022,10.149224 c 0.611727,-0.0351 0.497942,-0.02597 1.535291,-0.07828 1.546231,1.317993 2.058738,1.693767 4.760098,3.616705 C 9.170379,13.493412 7.115968,12.692617 5.59022,10.149224 Z"
       style="fill:#232627;fill-opacity:1;stroke:none;stroke-width:0.038418;stroke-linecap:butt;stroke-linejoin:miter;stroke-miterlimit:4;stroke-dasharray:none;stroke-opacity:1" />
    <path
       style="fill:#232627;fill-opacity:1;stroke:none;stroke-width:0.038418;stroke-linecap:butt;stroke-linejoin:miter;stroke-miterlimit:4;stroke-dasharray:none;stroke-opacity:1"
       d="m 11.527523,6.315217 c -1.020994,1.348618 -2.71851,3.170692 -4.57635,3.410699 -1.857836,0.24002 -3.628979,-0.02585 -4.039248,1.357748 -0.37782,1.274197 0.951013,2.463858 2.329232,2.177131 1.472381,-0.306311 1.154397,-1.975136 0.349063,-3.111571 0.611727,-0.0351 0.497942,-0.02597 1.535291,-0.07828 1.546231,1.317993 2.058738,1.693767 4.760098,3.616705 C 9.80389,13.469618 9.046239,13.269443 7.553165,12.376353 7.93995,13.347216 8.766657,15.550695 8.94573,17.260417 8.084587,16.023006 7.758124,15.568262 6.423547,14.675553 4.714044,13.532047 3.32955,13.493333 2.528219,11.80861 1.728623,10.127518 2.786996,8.916571 4.680876,8.392145 7.387372,7.642699 9.719371,6.932156 11.527523,6.31522 Z"
       id="path911-53-5"
       inkscape:connector-curvature="0"
       sodipodi:nodetypes="cssscccccsssc" />
    <path
       style="fill:#232627;fill-opacity:1;stroke:none;stroke-width:0.038418;stroke-linecap:butt;stroke-linejoin:miter;stroke-miterlimit:4;stroke-dasharray:none;stroke-opacity:1"
       d="m 5.59022,10.149224 c 0.611727,-0.0351 0.497942,-0.02597 1.535291,-0.07828 1.546231,1.317993 2.058738,1.693767 4.760098,3.616705 C 9.170379,13.493412 7.115968,12.692617 5.59022,10.149224 Z"
       id="path913-5-3"
       inkscape:connector-curvature="0"
       sodipodi:nodetypes="cccc" />
    <path
       sodipodi:nodetypes="ccccc"
       inkscape:connector-curvature="0"
       id="path915-6-5"
       d="M 1,7.235962 C 1.492552,6.991461 1.937672,6.789922 2.953089,6.054349 4.909219,4.637315 6.98024,4.946347 8.017353,5.509089 5.18204,5.616871 5.547361,6.181804 5.536899,6.624677 3.653111,6.227596 3.103081,6.767862 1,7.235962 Z"
       style="fill:#232627;fill-opacity:1;stroke:none;stroke-width:0.038418;stroke-linecap:butt;stroke-linejoin:miter;stroke-miterlimit:4;stroke-dasharray:none;stroke-opacity:1" />
    <path
       inkscape:connector-curvature="0"
       id="path917-2-6"
       d="M 8.017353,5.509089 C 5.18204,5.616871 5.722189,7.161556 6.139801,7.975456 5.80894,8.071556 5.450331,8.181049 5.008031,8.298097 3.2234,5.118196 6.560785,4.704512 8.017353,5.509089 Z"
       style="fill:#232627;fill-opacity:1;stroke:none;stroke-width:0.038418;stroke-linecap:butt;stroke-linejoin:miter;stroke-miterlimit:4;stroke-dasharray:none;stroke-opacity:1"
       sodipodi:nodetypes="cccc" />
    <path
       sodipodi:nodetypes="cscc"
       style="fill:#232627;fill-opacity:1;stroke:none;stroke-width:0.038418;stroke-linecap:butt;stroke-linejoin:miter;stroke-miterlimit:4;stroke-dasharray:none;stroke-opacity:1"
       d="M 3.03877,12.600799 C 1.651321,10.814286 1.907499,9.176795 4.624321,8.326008 7.305379,7.486414 9.719371,6.932153 11.527523,6.315217 6.647993,8.174427 0.537866,9.416741 3.03877,12.600799 Z"
       id="path919-9-2"
       inkscape:connector-curvature="0" />
    <path
       d="m 10.108989,4 h 10.389149 a 0.37104109,0.5 0 0 0 0,-1 H 10.108989 a 0.37104109,0.5 0 0 0 0,1 z"
       id="path4-9"
       style="fill:#232627;fill-opacity:1;stroke-width:0.215362" />
    <path
       d="m 20.210542,7 h -8.066881 a 0.65852181,0.5 0 0 0 0,1 h 8.066881 a 0.65852181,0.5 0 0 0 0,-1 z"
       id="path6-1"
       style="fill:#232627;fill-opacity:1;stroke-width:0.286906" />
    <path
       d="m 20.210542,11 h -8.066881 a 0.65852123,0.5 0 0 0 0,1 h 8.066881 a 0.65852123,0.5 0 0 0 0,-1 z"
       id="path8-2"
       style="fill:#232627;fill-opacity:1;stroke-width:0.286906" />
    <path
       d="m 20.210542,15 h -8.066881 a 0.65852123,0.5 0 0 0 0,1 h 8.066881 a 0.65852123,0.5 0 0 0 0,-1 z"
       id="path10-7"
       style="fill:#232627;fill-opacity:1;stroke-width:0.286906" />
    <path
       d="M 20.210542,18 H 1.771957 a 0.65852123,0.5 0 0 0 0,1 h 18.438585 a 0.65852123,0.5 0 0 0 0,-1 z"
       id="path12-0"
       style="fill:#232627;fill-opacity:1;stroke-width:0.286906" />
  </g>
</svg>
